<svg width="31" height="30" viewBox="0 0 31 30" fill="none" xmlns="http://www.w3.org/2000/svg">
<path fill-rule="evenodd" clip-rule="evenodd" d="M17.4374 29.8219C24.6702 28.7074 30.2062 22.4958 30.2062 15C30.2062 6.71573 23.4443 0 15.1031 0C6.76189 0 0 6.71573 0 15C0 22.4212 5.42641 28.5837 12.5535 29.7872V20.9896H9.53406C9.27338 20.9896 9.06186 20.7798 9.06186 20.5206V16.7393C9.06186 16.4802 9.27314 16.2701 9.53406 16.2701H12.5535V13.6603C12.5535 10.2217 14.7338 8 18.1076 8L21.1107 8.00479C21.3711 8.00526 21.5822 8.21511 21.5822 8.47377V11.9849C21.5822 12.2438 21.3709 12.4539 21.1102 12.4539L19.0872 12.4546C17.6925 12.4546 17.4374 12.9944 17.4374 14.0578V16.2701H20.969C21.0943 16.2701 21.2148 16.3197 21.3032 16.4077C21.3916 16.4958 21.4415 16.6149 21.4415 16.7393L21.44 20.5206C21.44 20.7798 21.2287 20.9896 20.9678 20.9896H17.4374V29.8219Z" fill="#D5DDE0"/>
</svg>
