<svg width="31" height="30" viewBox="0 0 31 30" fill="none" xmlns="http://www.w3.org/2000/svg">
<path fill-rule="evenodd" clip-rule="evenodd" d="M15.1031 30C23.4443 30 30.2062 23.2843 30.2062 15C30.2062 6.71573 23.4443 0 15.1031 0C6.76189 0 0 6.71573 0 15C0 23.2843 6.76189 30 15.1031 30ZM4 14.75C4 11.5744 6.57436 9 9.75 9C11.9306 9 13.8262 10.2137 14.8008 12H23.75C24.7165 12 25.5 12.7835 25.5 13.75V16.75C25.5 17.1642 25.1642 17.5 24.75 17.5H23V19.75C23 20.1642 22.6642 20.5 22.25 20.5H18.75C18.3358 20.5 18 20.1642 18 19.75V17.5H14.8008C13.8262 19.2863 11.9306 20.5 9.75 20.5C6.57436 20.5 4 17.9256 4 14.75ZM9.75 10.5C7.40279 10.5 5.5 12.4028 5.5 14.75C5.5 17.0972 7.40279 19 9.75 19C11.4916 19 12.9902 17.9523 13.6467 16.4497C13.766 16.1766 14.0359 16 14.334 16H18.75C19.1642 16 19.5 16.3358 19.5 16.75V19H21.5V16.75C21.5 16.3358 21.8358 16 22.25 16H24V13.75C24 13.6119 23.8881 13.5 23.75 13.5H14.334C14.0359 13.5 13.766 13.3234 13.6467 13.0503C12.9902 11.5477 11.4916 10.5 9.75 10.5ZM7.75 14.75C7.75 13.6454 8.64543 12.75 9.75 12.75C10.8546 12.75 11.75 13.6454 11.75 14.75C11.75 15.8546 10.8546 16.75 9.75 16.75C8.64543 16.75 7.75 15.8546 7.75 14.75Z" fill="#D5DDE0"/>
</svg>
