<?xml version="1.0" encoding="utf-8"?>
<!-- Generator: Adobe Illustrator 23.0.0, SVG Export Plug-In . SVG Version: 6.00 Build 0)  -->
<svg version="1.1" id="Слой_1" xmlns="http://www.w3.org/2000/svg" xmlns:xlink="http://www.w3.org/1999/xlink" x="0px" y="0px"
	 viewBox="0 0 29 30" style="enable-background:new 0 0 29 30;" xml:space="preserve">
<style type="text/css">
	.st0{fill:#D5DDE0;}
</style>
<path class="st0" d="M14.5,0C6.5,0,0,6.7,0,15c0,8.3,6.5,15,14.5,15c8,0,14.5-6.7,14.5-15C29,6.7,22.5,0,14.5,0z M20.9,21.2
	c-0.8-2.4-2.7-4.2-5.2-4.4v4.4h-0.4c-6.8,0-10.7-4.7-10.9-12.4H8c0.1,5.7,2.6,8.1,4.6,8.6V8.8h3.2v4.9c2-0.2,4-2.5,4.7-4.9h3.2
	c-0.5,3-2.8,5.3-4.4,6.2c1.6,0.7,4.1,2.7,5.1,6.2H20.9z"/>
</svg>
