<svg width="30" height="30" viewBox="0 0 30 30" fill="none" xmlns="http://www.w3.org/2000/svg">
<ellipse cx="14.505" cy="15" rx="14.505" ry="15" fill="#D5DDE0"/>
<path d="M13.2606 8C12.9537 8 12.7049 8.24881 12.7049 8.55573V9.11146H9.55573C9.24881 9.11146 9 9.36027 9 9.66719C9 9.97411 9.24881 10.2229 9.55573 10.2229H19.9294C20.2363 10.2229 20.4851 9.97411 20.4851 9.66719C20.4851 9.36027 20.2363 9.11146 19.9294 9.11146H16.7802V8.55573C16.7802 8.24881 16.5314 8 16.2245 8H13.2606Z" fill="white"/>
<path d="M13.2606 14.2242C13.5675 14.2242 13.8163 14.473 13.8163 14.7799L13.8163 19.9667C13.8163 20.2737 13.5675 20.5225 13.2606 20.5225C12.9537 20.5225 12.7049 20.2737 12.7049 19.9667L12.7049 14.7799C12.7049 14.473 12.9537 14.2242 13.2606 14.2242Z" fill="white"/>
<path d="M16.7802 14.7799C16.7802 14.473 16.5314 14.2242 16.2245 14.2242C15.9176 14.2242 15.6688 14.473 15.6688 14.7799V19.9667C15.6688 20.2737 15.9176 20.5225 16.2245 20.5225C16.5314 20.5225 16.7802 20.2737 16.7802 19.9667V14.7799Z" fill="white"/>
<path fill-rule="evenodd" clip-rule="evenodd" d="M10.2904 12.1992C10.3216 11.9178 10.5595 11.7049 10.8427 11.7049H18.6424C18.9256 11.7049 19.1635 11.9178 19.1947 12.1992L19.3431 13.534C19.6119 15.9535 19.6119 18.3954 19.3431 20.8149L19.3285 20.9463C19.2217 21.9067 18.4774 22.6725 17.5204 22.8065C15.6775 23.0645 13.8076 23.0645 11.9647 22.8065C11.0077 22.6725 10.2634 21.9067 10.1566 20.9463L10.142 20.8149C9.87321 18.3954 9.87321 15.9535 10.142 13.534L10.2904 12.1992ZM11.3401 12.8163L11.2467 13.6567C10.9869 15.9947 10.9869 18.3542 11.2467 20.6921L11.2613 20.8235C11.3119 21.279 11.6649 21.6422 12.1188 21.7058C13.8595 21.9495 15.6256 21.9495 17.3663 21.7058C17.8202 21.6422 18.1732 21.279 18.2238 20.8235L18.2384 20.6921C18.4982 18.3542 18.4982 15.9947 18.2384 13.6567L18.145 12.8163H11.3401Z" fill="white"/>
</svg>
