<svg width="31" height="30" viewBox="0 0 31 30" fill="none" xmlns="http://www.w3.org/2000/svg">
<ellipse cx="15.1031" cy="15" rx="15.1031" ry="15" fill="#D5DDE0"/>
<path d="M20.5626 8.15747C20.7726 8.36744 20.7726 8.70785 20.5626 8.91782L20.168 9.31241C22.5258 12.0588 22.4039 16.2007 19.8023 18.8023C18.5743 20.0302 17.0032 20.7058 15.3977 20.8288V21.9247H16.6522C16.9491 21.9247 17.1898 22.1654 17.1898 22.4624C17.1898 22.7593 16.9491 23 16.6522 23H13.0679C12.771 23 12.5303 22.7593 12.5303 22.4624C12.5303 22.1654 12.771 21.9247 13.0679 21.9247H14.3224V20.8288C12.8842 20.7185 11.4736 20.1649 10.3124 19.168L9.91782 19.5626C9.70785 19.7726 9.36744 19.7726 9.15747 19.5626C8.94751 19.3527 8.94751 19.0122 9.15747 18.8023L9.66437 18.2954C10.0195 17.9402 10.5714 17.9584 10.9172 18.2682C12.0369 19.2717 13.4473 19.7737 14.8579 19.7741L14.86 19.7741L14.8624 19.7741C16.3751 19.7735 17.8878 19.1961 19.0419 18.0419C21.2735 15.8104 21.3489 12.2389 19.2682 9.91716C18.9584 9.57141 18.9402 9.01952 19.2954 8.66437L19.8023 8.15747C20.0122 7.94751 20.3527 7.94751 20.5626 8.15747Z" fill="white"/>
<path fill-rule="evenodd" clip-rule="evenodd" d="M10.0213 13.86C10.0213 11.1877 12.1877 9.02125 14.86 9.02125C17.5324 9.02125 19.6988 11.1877 19.6988 13.86C19.6988 16.5324 17.5324 18.6988 14.86 18.6988C12.1877 18.6988 10.0213 16.5324 10.0213 13.86ZM14.86 10.0965C12.7815 10.0965 11.0965 11.7815 11.0965 13.86C11.0965 14.1001 11.119 14.3349 11.162 14.5624C11.4568 14.2409 11.8804 14.0393 12.351 14.0393C13.2418 14.0393 13.964 14.7614 13.964 15.6522C13.964 16.3134 13.5661 16.8817 12.9968 17.1307C13.5461 17.4443 14.1822 17.6236 14.86 17.6236C16.6833 17.6236 18.2037 16.3271 18.5497 14.6057C18.0704 15.3435 17.2391 15.8314 16.2938 15.8314C14.8091 15.8314 13.6055 14.6279 13.6055 13.1432C13.6055 11.6585 14.8091 10.455 16.2938 10.455C16.3558 10.455 16.4173 10.4571 16.4782 10.4612C15.988 10.2274 15.4393 10.0965 14.86 10.0965ZM14.6808 13.1432C14.6808 12.2524 15.403 11.5303 16.2938 11.5303C17.1846 11.5303 17.9067 12.2524 17.9067 13.1432C17.9067 14.034 17.1846 14.7561 16.2938 14.7561C15.403 14.7561 14.6808 14.034 14.6808 13.1432ZM12.351 15.1146C12.0541 15.1146 11.8134 15.3553 11.8134 15.6522C11.8134 15.9491 12.0541 16.1898 12.351 16.1898C12.648 16.1898 12.8887 15.9491 12.8887 15.6522C12.8887 15.3553 12.648 15.1146 12.351 15.1146Z" fill="white"/>
</svg>
