<svg width="31" height="30" viewBox="0 0 31 30" fill="none" xmlns="http://www.w3.org/2000/svg">
<ellipse cx="15.1031" cy="15" rx="15.1031" ry="15" fill="#D5DDE0"/>
<path fill-rule="evenodd" clip-rule="evenodd" d="M15.5068 9.50152C15.152 9.28792 14.7083 9.28792 14.3536 9.50152L13.8919 9.77952C12.6568 10.5232 11.2702 10.9796 9.83477 11.1149L9.5439 11.1423C9.42907 11.1531 9.34132 11.2495 9.34132 11.3648V12.8348C9.34132 15.0771 10.2517 17.2233 11.8638 18.7818L14.7748 21.5959C14.8614 21.6796 14.9989 21.6796 15.0855 21.5959L17.9965 18.7818C19.6086 17.2233 20.519 15.0771 20.519 12.8348V11.3648C20.519 11.2495 20.4312 11.1531 20.3164 11.1423L20.0255 11.1149C18.5901 10.9796 17.2036 10.5232 15.9684 9.77952L15.5068 9.50152ZM13.6616 8.35244C14.442 7.88252 15.4183 7.88252 16.1987 8.35244L16.6604 8.63044C17.7231 9.27039 18.9162 9.66309 20.1513 9.77945L20.4422 9.80685C21.246 9.88259 21.8603 10.5574 21.8603 11.3648V12.8348C21.8603 15.4407 20.8023 17.9349 18.9288 19.7461L16.0178 22.5602C15.4112 23.1466 14.4491 23.1466 13.8425 22.5602L10.9315 19.7461C9.05796 17.9349 8 15.4407 8 12.8348V11.3648C8 10.5574 8.61426 9.88259 9.41809 9.80685L9.70896 9.77945C10.9441 9.66309 12.1372 9.27039 13.1999 8.63044L13.6616 8.35244Z" fill="white"/>
</svg>
