<?xml version="1.0" encoding="utf-8"?>
<!-- Generator: Adobe Illustrator 23.0.0, SVG Export Plug-In . SVG Version: 6.00 Build 0)  -->
<svg version="1.1" id="Слой_1" xmlns="http://www.w3.org/2000/svg" xmlns:xlink="http://www.w3.org/1999/xlink" x="0px" y="0px"
	 viewBox="0 0 120 120" style="enable-background:new 0 0 120 120;" xml:space="preserve">
<style type="text/css">
	.st0{fill:#FFFFFF;}
</style>
<title>logo-mobile</title>
<g>
	<path class="st0" d="M118.1,46.1c-1.1-2.8-2.9-5.3-5-7.4c-2.2-2.1-4.7-3.7-7.5-4.9c-3-1.2-6.2-1.8-9.4-1.8H68.5
		c-0.7,0-1.4,0.1-2.1,0.4c-0.7,0.2-1.2,0.7-1.7,1.1c-0.4,0.4-0.9,1-1.1,1.7c-0.2,0.7-0.4,1.2-0.4,1.9v5.1h32.9c1.9,0,3.6,0.3,5.4,1
		c1.5,0.6,3,1.5,4.2,2.6c1.2,1.2,2.1,2.6,2.8,4.2c0.7,1.8,1,3.5,1,5.4v9.2c0,1.9-0.3,3.6-1,5.4c-0.7,1.5-1.5,3-2.8,4.2
		c-1.2,1.2-2.6,2.1-4.2,2.6c-1.8,0.7-3.5,1-5.4,1H63.4v5c0,0.7,0.1,1.4,0.4,2c0.2,0.6,0.7,1.1,1.1,1.7c0.4,0.4,1,0.8,1.7,1.1
		c0.7,0.2,1.3,0.4,2.1,0.3h27.7c3.2,0,6.4-0.6,9.4-1.8c2.8-1.1,5.3-2.8,7.5-4.9c2.1-2.1,3.9-4.6,5-7.4c1.2-3,1.9-6.2,1.8-9.4v-9
		C119.8,52.3,119.3,49.1,118.1,46.1z"/>
	<path class="st0" d="M79.4,50.6H56.5v-8.5l0,0v-5.1c0-0.7-0.1-1.3-0.4-2c-0.6-1.2-1.5-2.2-2.8-2.8c-0.7-0.2-1.3-0.4-2-0.4h-23
		c-3.9,0-7.7,0.7-11.2,2.1c-3.3,1.3-6.4,3.2-9,5.7c-2.5,2.5-4.5,5.5-6,8.8C0.7,52.3,0,56.1,0.1,60v27.9h10.3V60
		c-0.1-2.4,0.3-4.9,1.2-7.2c0.7-1.9,1.8-3.5,3.1-5c1.2-1.2,2.5-2.3,4.1-3.1c1.3-0.7,2.8-1.2,4.2-1.7c1.1-0.3,2.3-0.6,3.5-0.7
		c1-0.1,1.7-0.1,2-0.1h18v8.4H35.9v10.1h10.5v3.4H20.2v10.1h26.1v13.7h10.3V60.8h22.7V50.6z"/>
</g>
</svg>
