<svg width="215" height="164" viewBox="0 0 215 164" fill="none" xmlns="http://www.w3.org/2000/svg">
<path d="M123.063 111.192C135.668 105.877 145.619 98.6438 152.911 89.4881C160.202 80.3344 163.848 70.3659 163.848 59.5822C163.848 48.7981 160.202 38.8289 152.908 29.6747C145.617 20.5206 135.668 13.2863 123.061 7.97087C110.454 2.65628 96.7424 0 81.9236 0C67.106 0 53.3942 2.65791 40.7865 7.97087C28.1801 13.2859 18.2304 20.5202 10.939 29.6747C3.64673 38.8305 0 48.7981 0 59.5826C0 68.8138 2.75818 77.5065 8.26597 85.6522C13.7734 93.7963 21.3379 100.663 30.957 106.248C30.1818 108.112 29.3866 109.816 28.5718 111.37C27.7566 112.921 26.7878 114.414 25.662 115.85C24.537 117.287 23.6652 118.411 23.044 119.223C22.4233 120.037 21.4149 121.184 20.0177 122.655C18.6208 124.13 17.7282 125.099 17.341 125.564C17.341 125.486 17.1857 125.661 16.8751 126.088C16.5641 126.515 16.3897 126.708 16.3514 126.671C16.3122 126.63 16.157 126.824 15.8855 127.25C15.614 127.677 15.4779 127.891 15.4779 127.891L15.1865 128.471C15.0715 128.705 14.9925 128.934 14.9541 129.168C14.915 129.399 14.8955 129.653 14.8955 129.924C14.8955 130.195 14.9338 130.446 15.0128 130.68C15.1681 131.687 15.614 132.5 16.351 133.124C17.0875 133.743 17.8819 134.053 18.7362 134.053H19.0855C22.9637 133.51 26.3003 132.889 29.0927 132.19C41.04 129.089 51.8245 124.121 61.4441 117.295C68.4258 118.536 75.2529 119.157 81.9244 119.157C96.7432 119.162 110.457 116.507 123.063 111.192Z" fill="#F7F8F9"/>
<path d="M206.272 115.497C211.782 107.39 214.535 98.6851 214.535 89.3745C214.535 79.8311 211.622 70.904 205.806 62.6038C199.986 54.3044 192.072 47.3986 182.065 41.8904C183.848 47.7084 184.74 53.6042 184.74 59.5791C184.74 69.9739 182.145 79.8266 176.944 89.1372C171.746 98.445 164.298 106.668 154.601 113.806C145.601 120.323 135.361 125.325 123.878 128.818C112.398 132.307 100.412 134.054 87.9209 134.054C85.5944 134.054 82.1804 133.901 77.6814 133.591C93.2742 143.829 111.584 148.951 132.607 148.951C139.28 148.951 146.106 148.329 153.089 147.088C162.708 153.917 173.493 158.88 185.439 161.985C188.232 162.685 191.568 163.304 195.447 163.847C196.378 163.925 197.233 163.653 198.008 163.032C198.784 162.412 199.289 161.561 199.52 160.476C199.484 160.01 199.52 159.754 199.637 159.717C199.752 159.68 199.732 159.427 199.579 158.962C199.425 158.496 199.347 158.263 199.347 158.263L199.057 157.683C198.976 157.53 198.845 157.315 198.65 157.044C198.456 156.775 198.301 156.578 198.184 156.463C198.07 156.347 197.897 156.152 197.662 155.882C197.431 155.613 197.275 155.437 197.196 155.359C196.809 154.893 195.917 153.924 194.521 152.449C193.123 150.977 192.117 149.833 191.496 149.018C190.875 148.203 190.002 147.079 188.877 145.643C187.753 144.209 186.782 142.715 185.968 141.163C185.153 139.611 184.358 137.904 183.582 136.043C193.202 130.453 200.765 123.606 206.272 115.497Z" fill="#F7F8F9"/>
</svg>
