<svg width="26" height="24" viewBox="0 0 26 24" fill="none" xmlns="http://www.w3.org/2000/svg">
<path fill-rule="evenodd" clip-rule="evenodd" d="M26 11.5946C26 11.9774 25.7925 12.3301 25.4578 12.516L22.2502 14.298C15.9099 17.8204 9.22612 20.6857 2.30317 22.8491L1.36845 23.1412C1.0484 23.2412 0.699859 23.183 0.4297 22.9844C0.159541 22.7858 -1.4657e-08 22.4705 0 22.1351L3.53235e-07 14.0541C3.77257e-07 13.5045 0.422205 13.0472 0.969999 13.0034L1.28949 12.9778C4.31316 12.7359 7.31355 12.2732 10.2668 11.5942C7.27208 10.9057 4.22889 10.4397 1.16213 10.2008L0.972197 10.186C0.423471 10.1433 5.4419e-07 9.68553 5.68248e-07 9.13514L9.21483e-07 1.05406C9.3614e-07 0.718749 0.159542 0.40344 0.429701 0.204821C0.69986 0.00620228 1.0484 -0.0520268 1.36845 0.047989L2.30315 0.340082C9.22612 2.50351 15.9099 5.36876 22.2502 8.8912L25.4578 10.6732C25.7925 10.8591 26 11.2118 26 11.5946ZM22.7755 11.5946L21.2265 10.734C15.1441 7.35495 8.73947 4.59288 2.10811 2.48882L2.10811 8.16481C6.22606 8.53621 10.2992 9.30401 14.2709 10.4579L14.6995 10.5824C15.1501 10.7133 15.4599 11.1264 15.4595 11.5956C15.459 12.0649 15.1484 12.4773 14.6975 12.6074L14.1486 12.7657C10.2156 13.9 6.18383 14.6561 2.10811 15.0238L2.10811 20.7004C8.73945 18.5963 15.1441 15.8343 21.2264 12.4552L22.7755 11.5946Z" fill="#3E4958"/>
</svg>
