<svg width="411" height="230" viewBox="0 0 411 230" fill="none" xmlns="http://www.w3.org/2000/svg">
<g clip-path="url(#clip0_504_593)">
<path d="M-4.73755 0H415.354V146.507H-4.73755V0Z" fill="url(#paint0_linear_504_593)"/>
<path d="M-2.58447 99.0366C-2.58447 99.0366 21.9384 97.8813 42.2078 90.7397C42.2078 90.7397 61.8995 97.0411 73.032 99.0366C84.1644 101.032 106.114 97.8813 112.941 101.295C112.941 101.295 127.224 110.116 135.205 111.009C143.187 111.849 154.582 112.427 162.039 108.436C169.443 104.445 170.861 107.018 174.326 108.436C177.74 109.854 182.046 113.582 192.863 105.863C203.68 98.1439 208.249 95.5708 213.395 97.3037C218.541 99.0366 228.518 107.281 256.769 114.685C285.021 122.089 302.139 108.699 302.139 108.699C302.139 108.699 305.552 104.97 314.689 104.97C323.826 104.97 352.34 103.815 352.34 103.815L210.192 198.283L28.5023 135.532L-2.58447 99.0366Z" fill="#669AA2"/>
<path d="M613.795 -29.0388C613.795 -29.0388 583.548 16.331 557.607 19.1667C557.607 19.1667 545.635 22.0023 544.217 26.3082C542.799 30.6141 539.649 36.2854 534.24 36.6004C528.831 36.863 518.276 41.4315 507.722 36.6004C497.167 31.7694 485.194 32.032 476.32 38.8584C467.498 45.6849 427.852 71.363 408.738 79.6598C389.623 87.9566 381.379 82.2329 381.379 82.2329C381.379 82.2329 252.411 162.365 193.913 189.986L252.674 231.628L567.27 210.781L630.861 192.507L613.795 -29.0388Z" fill="#A7C6CA"/>
<path d="M-182.331 8.61188C-182.331 8.61188 -159.489 6.03883 -143.525 13.758C-127.562 21.4772 -80.774 57.395 -62.5 62.8037C-44.226 68.2123 -28.5776 67.9498 -18.5479 73.621C-8.57076 79.3448 5.13471 94.153 24.8265 103.868C44.5183 113.582 165.084 182.897 217.018 184.315L210.192 198.283L23.9338 194.555L-117.847 103.29L-182.331 8.61188Z" fill="#91B7BC"/>
<path d="M-244.61 -69.105C-244.61 -69.105 -229.801 -75.9315 -220.349 -69.105C-210.897 -62.2786 -166.788 40.9589 -55.8311 108.279C-55.8311 108.279 18.2101 154.909 58.1187 161.21C98.0274 167.511 127.171 189.724 163.089 186.31C199.007 182.897 227.258 192.612 242.119 192.612C256.98 192.612 395.872 188.621 395.872 188.621L494.541 185.47L140.824 231.68H-244.505L-244.61 -69.105Z" fill="#BDD4D7"/>
<path d="M-251.646 202.011C-251.646 202.011 -139.534 218.29 86.3698 214.824L61.2694 224.224L-89.3334 227.952L-253.642 225.694L-251.646 202.011Z" fill="#669AA2"/>
<path d="M182.203 210.833C182.203 210.833 153.374 206.002 142.294 207.105C131.162 208.26 72.1392 216.242 72.1392 216.242C72.1392 216.242 59.8516 217.66 36.7465 217.082C36.7465 217.082 23.6187 217.082 13.9041 218.815C4.18945 220.548 -48.0069 224.801 -59.6644 224.539C-71.322 224.276 -248.758 221.966 -248.758 221.966V231.68L-76.4681 242.813L137.726 233.991L187.927 221.178L182.203 210.833Z" fill="#91B7BC"/>
<path d="M52.7101 216.557C52.7101 216.557 47.8791 217.712 49.5594 219.393C51.2923 221.126 55.8608 221.966 53.8128 223.646C51.7649 225.326 45.516 227.059 31.2854 227.9C17.0548 228.792 -65.073 230.525 -65.073 230.525L-134.651 232.258L-289.559 231.68V237.982L-91.9063 234.568L-24.9018 232.573L33.0183 230.315C33.0183 230.315 53.5503 228.582 55.8608 226.324C58.1188 224.066 56.1233 221.493 55.0206 220.916C53.8654 220.338 50.7672 219.76 50.7672 218.92C50.7147 217.975 52.7101 216.557 52.7101 216.557V216.557Z" fill="#CDDADC"/>
<path d="M623.772 138.945C623.772 138.945 311.171 191.404 197.642 205.687C197.642 205.687 134.05 215.402 122.918 221.966C111.785 228.53 174.537 223.699 174.537 223.699C174.537 223.699 102.648 231.68 27.6096 235.356C-47.4292 239.084 -244.767 235.356 -244.767 235.356V240.187L14.4818 250.479L619.728 248.484L623.772 138.945Z" fill="#538C94"/>
<path d="M381.432 217.66C381.432 215.717 379.436 214.194 376.916 214.194C376.233 214.194 375.603 214.299 375.078 214.509C373.975 213.249 372.347 212.514 370.562 212.514C368.146 212.514 366.098 213.931 365.153 215.927C364.943 215.874 364.785 215.874 364.575 215.874C362.58 215.874 360.952 217.397 360.952 219.288H380.959C381.274 218.763 381.432 218.237 381.432 217.66V217.66Z" fill="#91B7BC"/>
<path d="M178.055 227.374C178.055 225.484 176.059 223.909 173.591 223.909C172.909 223.909 172.331 224.014 171.753 224.224C171.094 223.491 170.264 222.932 169.337 222.596C168.41 222.26 167.415 222.158 166.439 222.298C165.463 222.438 164.537 222.816 163.742 223.4C162.947 223.983 162.308 224.753 161.881 225.642C161.671 225.589 161.514 225.589 161.304 225.589C159.308 225.589 157.68 227.112 157.68 229.002H177.582C177.897 228.477 178.055 227.952 178.055 227.374V227.374Z" fill="#D3E2E4"/>
<path d="M77.0229 220.811C77.0229 219.813 75.9726 218.973 74.6599 218.973C74.2923 218.973 73.9772 219.025 73.7147 219.13C73.3681 218.744 72.9318 218.449 72.4443 218.271C71.9568 218.094 71.4331 218.039 70.9193 218.111C70.4055 218.184 69.9176 218.382 69.4984 218.688C69.0793 218.994 68.7419 219.398 68.516 219.865H68.201C67.1507 219.865 66.3105 220.653 66.3105 221.651H76.7078C76.9179 221.388 77.0229 221.126 77.0229 220.811V220.811Z" fill="#D3E2E4"/>
<path d="M137.621 213.091C137.621 212.094 136.571 211.253 135.258 211.253C134.89 211.253 134.575 211.306 134.313 211.411C133.966 211.025 133.53 210.73 133.042 210.552C132.555 210.374 132.031 210.32 131.517 210.392C131.004 210.465 130.516 210.663 130.097 210.969C129.677 211.275 129.34 211.679 129.114 212.146H128.799C127.749 212.146 126.909 212.934 126.909 213.931H137.306C137.569 213.669 137.621 213.406 137.621 213.091V213.091Z" fill="#D3E2E4"/>
<path d="M344.884 181.479V189.619" stroke="#054752" stroke-width="4" stroke-miterlimit="10"/>
<path d="M349.662 175.493H349.4C349.19 173.865 347.614 172.552 345.776 172.552C344.253 172.552 342.941 173.393 342.363 174.6C341.995 174.338 341.523 174.128 341.05 174.128C340.531 174.119 340.026 174.299 339.629 174.634C339.233 174.97 338.971 175.438 338.894 175.952C338.817 176.466 338.929 176.99 339.21 177.427C339.491 177.865 339.921 178.185 340.42 178.329C340.111 178.86 339.98 179.477 340.047 180.089C340.114 180.7 340.375 181.274 340.792 181.727C341.209 182.179 341.76 182.486 342.364 182.602C342.968 182.718 343.593 182.637 344.148 182.372C344.726 182.74 345.461 183.002 346.301 183.002C347.877 183.002 349.242 182.11 349.557 180.902H349.662C351.185 180.902 352.393 179.694 352.393 178.171C352.34 176.701 351.132 175.493 349.662 175.493V175.493Z" fill="#2E5862"/>
<path d="M363.683 178.066V186.205" stroke="#054752" stroke-width="4" stroke-miterlimit="10"/>
<path d="M368.461 172.08H368.199C367.989 170.452 366.413 169.139 364.576 169.139C363.053 169.139 361.74 169.979 361.162 171.187C360.795 170.925 360.322 170.715 359.85 170.715C359.33 170.706 358.825 170.886 358.428 171.221C358.032 171.557 357.771 172.025 357.694 172.539C357.617 173.053 357.729 173.577 358.009 174.014C358.29 174.451 358.72 174.772 359.219 174.916C358.91 175.447 358.779 176.064 358.846 176.676C358.913 177.287 359.174 177.861 359.591 178.313C360.008 178.766 360.559 179.072 361.163 179.188C361.767 179.305 362.393 179.224 362.948 178.959C363.525 179.326 364.261 179.589 365.101 179.589C366.676 179.589 368.041 178.696 368.356 177.489H368.461C369.179 177.489 369.867 177.204 370.374 176.697C370.881 176.189 371.166 175.501 371.166 174.784C371.166 174.067 370.881 173.379 370.374 172.872C369.867 172.365 369.179 172.08 368.461 172.08V172.08Z" fill="#2E5862"/>
<path d="M380.802 174.653V182.792" stroke="#054752" stroke-width="4" stroke-miterlimit="10"/>
<path d="M385.58 168.614H385.317C385.107 166.986 383.532 165.673 381.694 165.673C380.171 165.673 378.859 166.514 378.281 167.721C377.913 167.459 377.441 167.249 376.968 167.249C376.449 167.24 375.944 167.42 375.547 167.755C375.15 168.091 374.889 168.559 374.812 169.073C374.735 169.587 374.847 170.111 375.128 170.548C375.409 170.986 375.839 171.306 376.338 171.45C376.029 171.981 375.898 172.598 375.965 173.21C376.032 173.821 376.293 174.395 376.71 174.848C377.127 175.3 377.678 175.606 378.282 175.723C378.886 175.839 379.511 175.758 380.066 175.493C380.644 175.861 381.379 176.123 382.219 176.123C383.795 176.123 385.16 175.231 385.475 174.023H385.58C387.103 174.023 388.311 172.815 388.311 171.292C388.311 169.874 387.103 168.614 385.58 168.614V168.614Z" fill="#2E5862"/>
<path opacity="0.4" d="M143.071 132.597L333.372 132.597C334.6 132.597 335.596 131.601 335.596 130.373V93.5818C335.596 92.3537 334.6 91.3582 333.372 91.3582L143.071 91.3582C141.843 91.3582 140.847 92.3537 140.847 93.5818V130.373C140.847 131.601 141.843 132.597 143.071 132.597Z" fill="white"/>
<path d="M311.196 107.669L314.755 107.717C314.755 107.717 315.294 109.324 315.212 112.329C315.212 112.455 312.148 113.325 312.148 113.325L311.196 107.669Z" fill="#DDB68D"/>
<path d="M310.181 104.791C310.262 104.982 310.315 105.184 310.339 105.39C310.339 105.705 310.146 106.068 310.153 106.257C310.222 107.833 309.863 107.682 309.998 108.259C310.099 108.691 310.654 108.713 311.574 108.889C312.255 109.022 313.942 108.259 314.219 108.145C315.481 107.565 315.979 105.081 315.979 104.066C315.979 101.932 314.219 101.679 312.921 101.913C312.294 102.019 311.708 102.292 311.224 102.704C310.474 103.353 310.121 104.633 310.181 104.791Z" fill="#DDB68D"/>
<path d="M311.467 104.807C311.31 104.671 311.113 104.59 310.905 104.578C310.698 104.565 310.492 104.621 310.32 104.737" fill="black"/>
<g style="mix-blend-mode:multiply">
<g style="mix-blend-mode:multiply">
<path d="M310.9 105.551C310.995 105.551 311.073 105.473 311.073 105.377C311.073 105.282 310.995 105.204 310.9 105.204C310.804 105.204 310.726 105.282 310.726 105.377C310.726 105.473 310.804 105.551 310.9 105.551Z" fill="#014753"/>
</g>
</g>
<path d="M310.405 105.002C310.209 105.479 309.989 105.945 309.746 106.399C309.727 106.449 310.156 106.519 310.206 106.519C310.257 106.519 310.405 105.002 310.405 105.002V105.002Z" fill="#DDB68D"/>
<g style="mix-blend-mode:multiply" opacity="0.67">
<path d="M313.211 108.987C313.141 109.025 313.608 110.957 311.83 111.487L311.404 108.852L313.211 108.987Z" fill="#DDB68D"/>
</g>
<g style="mix-blend-mode:multiply">
<path d="M310.168 106.828C310.168 106.828 310.635 106.944 310.625 107.029C310.606 107.206 310.134 107.225 310.134 107.225L310.168 106.828Z" fill="#DDB68D"/>
</g>
<path d="M310.143 106.475C310.143 106.475 311.25 106.563 311.25 106.925C311.25 106.947 310.169 106.828 310.169 106.828L310.143 106.475ZM310.105 103.732C310.105 103.732 311.571 99.9487 315.465 102.058C317.243 103.022 316.562 105.746 315.046 108.048C315.024 108.079 314.128 108.196 313.895 107.811C313.608 107.332 313.526 105.589 313.526 105.589L312.523 105.8C312.523 105.8 312.404 104.558 312.208 104.504C310.392 103.993 310.105 103.732 310.105 103.732V103.732Z" fill="black"/>
<g style="mix-blend-mode:multiply" opacity="0.67">
<path d="M313.649 105.242C313.649 105.242 313.712 105.964 313.365 106.096C313.215 106.147 313.052 106.147 312.902 106.096C312.902 106.096 313.025 107.159 313.605 106.922C314.185 106.686 313.649 105.242 313.649 105.242Z" fill="#DDB68D"/>
</g>
<path d="M312.94 105.491C312.94 105.491 313.255 104.838 313.554 105.106C313.626 105.186 313.673 105.285 313.691 105.39C313.709 105.496 313.697 105.605 313.656 105.704C313.615 105.803 313.546 105.888 313.458 105.95C313.371 106.011 313.267 106.047 313.16 106.052C312.813 106.052 312.782 105.97 312.782 105.97L312.94 105.491Z" fill="#DDB68D"/>
<g style="mix-blend-mode:multiply">
<path d="M313.211 105.5C313.211 105.474 313.22 105.449 313.235 105.428C313.25 105.406 313.271 105.39 313.296 105.381C313.321 105.373 313.347 105.371 313.373 105.378C313.398 105.385 313.421 105.399 313.438 105.418V105.447C313.442 105.475 313.442 105.504 313.438 105.532C313.437 105.564 313.43 105.595 313.417 105.625C313.404 105.654 313.385 105.68 313.362 105.702C313.338 105.724 313.307 105.736 313.275 105.736C313.243 105.736 313.212 105.724 313.188 105.702L313.211 105.5Z" fill="#DDB68D"/>
</g>
<path d="M308.822 115.507C309.525 114.268 311.905 111.475 311.905 111.475L315.058 110.951C315.058 110.951 317.328 112.559 317.895 115.239C317.917 115.34 317.697 118.155 317.697 118.155H308.16C308.16 118.155 308.803 115.538 308.822 115.507V115.507Z" fill="#DDB68D"/>
<g style="mix-blend-mode:multiply" opacity="0.47">
<path d="M309.648 109.069C309.648 109.069 309.642 109.063 309.648 109.069V109.069Z" fill="#95ABBD"/>
</g>
<path d="M315.074 110.396L311.124 112.414L308.762 115.541L308.132 118.208H317.735L317.949 115.009C317.949 115.009 317.123 112.587 315.827 111.61L315.074 110.396Z" fill="#1D6D75"/>
<path d="M315.165 110.204L311.108 112.446L315.591 110.951L315.165 110.204Z" fill="#054752"/>
<path d="M312.391 119.063L309.188 116.074L312.391 113.621L314.632 114.261L315.165 116.289L312.391 119.063Z" fill="#054752"/>
<path d="M309.188 116.074L312.391 119.063L312.177 119.277L308.974 116.289L309.188 116.074Z" fill="#005156"/>
<path d="M281.795 105.237C281.795 105.237 282.281 107.526 280.956 108.645C278.371 110.833 280.736 113.185 282.848 112.646C284.96 112.107 284.298 107.706 284.298 107.706L281.795 105.237Z" fill="#F1890E"/>
<g style="mix-blend-mode:multiply">
<path d="M282.299 105.836C282.299 105.836 282.429 107.885 281.48 109.32C280.329 111.06 281.555 112.825 282.555 112.725C282.75 112.703 284.55 110.376 284.55 110.376C284.55 110.376 282.763 105.827 282.299 105.836V105.836Z" fill="#F5B240"/>
</g>
<path d="M282.309 107.368L284.415 107.302C285.199 108.448 285.59 109.818 285.528 111.205C285.528 111.303 283.062 112.003 283.062 112.003L282.309 107.368Z" fill="#F9CFC4"/>
<path d="M285.222 112.394C285.222 112.394 285.424 113.781 284.219 116.199C283.015 118.617 278.639 121.798 278.346 121.873C276.281 122.485 276.228 120.824 276.66 119.982C277.022 119.263 277.98 117.668 280.566 114.493C281.76 113.027 283.813 111.019 285.222 112.394V112.394Z" fill="#F9CFC4"/>
<path d="M282.016 117.769C282.016 117.769 279.326 118.008 279.326 116.426C279.326 115.584 279.393 116.155 281.612 112.996" fill="#E9CA91"/>
<path d="M271.064 127.479C270.944 127.74 270.799 127.989 270.632 128.223C270.587 128.463 270.525 128.7 270.446 128.932C270.481 129.117 270.526 129.3 270.581 129.48C270.593 129.539 270.588 129.6 270.567 129.655C270.546 129.711 270.509 129.76 270.462 129.796L269.935 128.85L270.067 128.015L270.181 127.037C270.26 126.975 270.356 126.938 270.457 126.931C270.557 126.924 270.658 126.946 270.745 126.996C270.907 127.112 271.021 127.284 271.064 127.479V127.479ZM280.928 113.967C281.451 113.393 282.763 110.225 282.763 110.225L285.707 110.089C285.707 110.089 287.57 111.924 287.835 113.387C287.99 114.393 288.002 115.416 287.873 116.426H281.218C281.218 116.426 280.903 114.008 280.928 113.967V113.967Z" fill="#F9CFC4"/>
<g style="mix-blend-mode:multiply" opacity="0.69">
<path d="M283.759 107.958C283.863 108.443 283.551 110.08 282.813 110.341L282.359 107.668L283.759 107.958Z" fill="#F9CFC4"/>
</g>
<path d="M281.508 105.297C281.543 105.827 281.546 106.259 281.546 106.615V106.883C281.546 108.065 281.483 108.226 282.466 108.39C283.018 108.484 284.465 107.68 284.582 107.479C285.011 106.757 285.61 105.738 285.61 104.979C285.622 104.671 285.571 104.363 285.461 104.075C285.35 103.788 285.182 103.525 284.967 103.305C284.751 103.084 284.493 102.91 284.208 102.793C283.923 102.676 283.616 102.618 283.308 102.624C282.946 102.653 282.598 102.782 282.303 102.995C282.009 103.209 281.778 103.499 281.637 103.834C281.413 104.55 281.467 104.622 281.508 105.297V105.297Z" fill="#F9CFC4"/>
<g style="mix-blend-mode:multiply">
<path d="M282.605 104.988C282.57 104.957 282.529 104.931 282.485 104.913C282.424 104.888 282.359 104.871 282.293 104.862C282.082 104.839 281.868 104.853 281.663 104.906C281.581 104.925 281.549 104.802 281.628 104.783C281.86 104.725 282.1 104.71 282.337 104.739C282.473 104.756 282.601 104.81 282.706 104.897C282.766 104.953 282.675 105.042 282.615 104.988H282.605Z" fill="#EDB6AB"/>
</g>
<g style="mix-blend-mode:multiply">
<g style="mix-blend-mode:multiply">
<path d="M282.161 105.493C282.237 105.493 282.299 105.43 282.299 105.354C282.299 105.277 282.237 105.215 282.161 105.215C282.084 105.215 282.022 105.277 282.022 105.354C282.022 105.43 282.084 105.493 282.161 105.493Z" fill="#014753"/>
</g>
</g>
<path d="M281.603 105.162C281.577 105.196 281.363 105.631 281.234 105.814C281.142 105.94 281.234 105.953 281.373 105.991L281.596 106.032C281.745 106.044 281.603 105.162 281.603 105.162Z" fill="#F9CFC4"/>
<path d="M281.65 106.883C281.72 106.879 281.788 106.854 281.844 106.811C281.9 106.768 281.942 106.71 281.965 106.643L281.65 106.615V106.883Z" fill="white"/>
<path d="M283.784 103.264C283.746 103.264 283.677 103.664 283.324 103.667C282.211 103.667 281.152 103.352 281.432 102.264C281.599 101.634 282.378 101.536 283.614 101.933C285.313 102.469 286.284 103.475 286.473 104.02C286.792 104.903 283.784 103.264 283.784 103.264Z" fill="#F1890E"/>
<path d="M282.782 102.838C282.732 103.466 282.881 104.093 283.207 104.632C283.434 104.994 284.651 105.288 284.683 105.852C284.683 106.133 284.27 106.568 284.245 106.927C284.049 109.493 283.828 112.539 287.303 112.769C289.487 112.914 290.701 112.157 290.383 109.786C290.272 108.982 289.222 108.119 287.501 107.863C287.117 107.807 286.801 106.025 286.691 104.793C286.631 104.202 286.361 103.652 285.931 103.242C285.931 103.242 283.728 102.223 282.782 102.838V102.838Z" fill="#F1890E"/>
<g style="mix-blend-mode:multiply" opacity="0.69">
<path d="M284.818 105.59C284.818 105.634 285.234 107.018 284.276 107.356C284.175 107.39 284.21 106.41 284.21 106.41L284.818 105.59Z" fill="#F9CFC4"/>
</g>
<path d="M284.144 105.723C284.144 105.723 284.522 105.272 284.752 105.486C284.982 105.701 284.566 106.514 284.305 106.432C284.043 106.35 284.033 106.205 284.033 106.205L284.144 105.723Z" fill="#F9CFC4"/>
<g style="mix-blend-mode:multiply">
<path d="M284.32 105.761C284.351 105.74 284.389 105.731 284.426 105.735C284.463 105.74 284.497 105.758 284.522 105.786C284.534 105.806 284.542 105.828 284.544 105.852C284.55 105.877 284.551 105.903 284.547 105.929C284.543 105.954 284.533 105.978 284.519 106C284.504 106.021 284.482 106.036 284.457 106.042C284.432 106.048 284.406 106.044 284.383 106.032" fill="#F9CFC4"/>
</g>
<path d="M253.737 107.744L257.284 107.794C257.284 107.794 257.823 109.395 257.741 112.39C257.741 112.513 254.686 113.383 254.686 113.383L253.737 107.744Z" fill="#FACCA3"/>
<path d="M251.436 115.31C252.139 114.068 254.519 111.278 254.519 111.278L257.672 110.751C257.672 110.751 259.942 112.359 260.509 115.042C260.531 115.143 260.31 117.958 260.31 117.958H250.774C250.774 117.958 251.417 115.341 251.436 115.31V115.31ZM252.543 108.365C252.643 108.771 253.195 108.793 254.119 108.967H254.141C254.275 108.986 254.411 108.986 254.544 108.967C254.804 108.927 255.06 108.869 255.31 108.793C255.8 108.643 256.281 108.466 256.751 108.264C258.012 107.712 258.507 105.36 258.507 104.399C258.507 102.378 256.754 102.138 255.459 102.359C254.84 102.458 254.257 102.716 253.769 103.109C253.022 103.718 252.669 104.931 252.729 105.08C252.809 105.26 252.862 105.451 252.886 105.647C252.886 105.962 252.694 106.278 252.7 106.467V106.627C252.741 107.958 252.413 107.838 252.543 108.365Z" fill="#FACCA3"/>
<path opacity="0.47" d="M253.999 104.89C253.842 104.755 253.645 104.675 253.438 104.663C253.232 104.65 253.027 104.706 252.854 104.821" fill="#95ABBD"/>
<g style="mix-blend-mode:multiply">
<path d="M253.441 105.634C253.537 105.634 253.614 105.557 253.614 105.461C253.614 105.365 253.537 105.288 253.441 105.288C253.345 105.288 253.268 105.365 253.268 105.461C253.268 105.557 253.345 105.634 253.441 105.634Z" fill="#014753"/>
</g>
<path d="M252.949 105.089C252.753 105.563 252.533 106.027 252.29 106.479C252.29 106.53 252.7 106.599 252.75 106.599C252.895 106.416 252.99 106.199 253.028 105.969C253.051 105.673 253.024 105.376 252.949 105.089V105.089Z" fill="#FACCA3"/>
<g style="mix-blend-mode:multiply" opacity="0.67">
<path d="M255.745 109.058C255.673 109.096 256.143 111.022 254.368 111.552L253.945 108.938L255.745 109.058Z" fill="#FACCA3"/>
</g>
<g style="mix-blend-mode:multiply">
<path d="M252.713 106.905C252.713 106.905 253.176 107.022 253.167 107.107C253.148 107.283 252.678 107.299 252.678 107.299L252.713 106.905Z" fill="#FACCA3"/>
</g>
<g style="mix-blend-mode:multiply" opacity="0.47">
<path d="M252.542 108.365C252.643 108.771 253.195 108.793 254.119 108.967H254.544C254.703 108.96 254.861 108.943 255.017 108.916C255.122 108.896 255.222 108.854 255.31 108.793C255.941 108.371 255.963 107.113 255.963 107.113L252.716 106.568V106.627C252.741 107.958 252.413 107.838 252.542 108.365ZM252.262 108.869C252.262 108.869 252.252 108.863 252.262 108.869V108.869Z" fill="#95ABBD"/>
</g>
<path d="M256.004 104.235C256.004 104.235 253.015 104.373 252.599 103.989C252.183 103.604 250.893 101.419 253.119 101.419C254.481 101.442 255.784 101.975 256.77 102.914L256.004 104.235Z" fill="#F5B240"/>
<path d="M257.7 110.199L253.75 112.217L251.389 115.341L250.758 118.011H260.361L260.575 114.808C260.575 114.808 259.749 112.39 258.453 111.413L257.7 110.199Z" fill="#2ED1FF"/>
<path d="M257.779 110.007L253.721 112.249L258.204 110.754L257.779 110.007Z" fill="white"/>
<path d="M253.602 103.071C253.602 103.071 255.528 100.584 258.375 102.28C260.105 103.314 259.339 105.896 257.429 108.1C257.4 108.131 256.578 107.936 256.347 107.551C256.061 107.072 256.079 105.66 256.079 105.66L255.077 105.868C255.077 105.868 254.818 104.767 254.762 104.575C254.547 103.762 253.602 103.071 253.602 103.071Z" fill="#F5B240"/>
<g style="mix-blend-mode:multiply" opacity="0.67">
<path d="M256.181 105.326C256.181 105.326 256.247 106.044 255.9 106.177C255.75 106.227 255.587 106.227 255.437 106.177C255.437 106.177 255.56 107.236 256.14 107.003C256.72 106.769 256.181 105.326 256.181 105.326Z" fill="#FACCA3"/>
</g>
<path d="M255.474 105.574C255.474 105.574 255.79 104.922 256.086 105.19C256.159 105.269 256.207 105.368 256.226 105.474C256.245 105.58 256.233 105.689 256.191 105.789C256.15 105.888 256.081 105.974 255.992 106.035C255.904 106.097 255.8 106.132 255.692 106.136C255.351 106.136 255.317 106.054 255.317 106.054L255.474 105.574Z" fill="#FACCA3"/>
<g style="mix-blend-mode:multiply">
<path d="M255.745 105.584C255.745 105.464 255.906 105.404 255.969 105.502V105.53C255.976 105.558 255.976 105.587 255.969 105.616C255.969 105.647 255.963 105.679 255.95 105.708C255.938 105.737 255.92 105.764 255.897 105.786C255.873 105.807 255.842 105.819 255.81 105.819C255.778 105.819 255.747 105.807 255.723 105.786L255.745 105.584Z" fill="#FACCA3"/>
</g>
<path opacity="0.3" d="M257.435 115.423C257.435 115.423 257.542 116.795 256.66 117.589C255.616 118.535 251.212 122.504 250.95 122.583C249.112 123.138 249.245 121.457 249.626 120.691C250.008 119.925 250.764 117.93 252.227 116.394C253.532 115.026 255.991 112.646 257.435 115.423Z" fill="#8F4160"/>
<path d="M250.351 122.28C249.623 122.479 249.428 122.034 249.428 122.034C248.63 119.679 247.772 116.637 247.281 115.13C247.238 114.937 247.216 114.741 247.214 114.544L248.211 113.973C253.072 120.565 251.079 122.078 250.351 122.28V122.28ZM247.47 112.144C247.423 111.893 247.349 111.648 247.249 111.413C247.257 111.196 247.25 110.98 247.23 110.764C247.296 110.609 247.372 110.458 247.457 110.313C247.48 110.266 247.488 110.213 247.482 110.161C247.475 110.109 247.453 110.06 247.419 110.02L246.764 110.745L246.71 111.498L246.609 112.365C246.677 112.429 246.761 112.474 246.852 112.494C246.943 112.514 247.038 112.508 247.126 112.479C247.21 112.464 247.288 112.424 247.35 112.365C247.411 112.305 247.453 112.228 247.47 112.144V112.144Z" fill="#FACCA3"/>
<path d="M248.365 112.233C248.394 112.394 248.365 112.734 248.384 112.863C248.435 113.371 248.305 113.525 248.252 114.515C248.192 115.59 247.306 115.417 247.23 114.976C247.205 114.834 247.211 114.632 247.177 114.49C246.948 113.814 246.753 113.127 246.594 112.431C246.594 112.431 246.704 112.088 246.975 112.04C247.07 112.016 247.17 112.022 247.261 112.057C247.352 112.093 247.43 112.157 247.483 112.239C247.511 112.321 247.536 112.428 247.675 112.409C247.87 112.346 247.93 112.233 247.933 112.018C247.905 111.561 248.031 111.404 248.154 111.407C248.151 111.555 248.331 111.984 248.365 112.233V112.233Z" fill="#FACCA3"/>
<path d="M247.483 112.397C247.481 112.14 247.456 111.883 247.41 111.631C247.461 111.423 247.498 111.212 247.52 111C247.617 110.861 247.723 110.729 247.836 110.603C247.867 110.561 247.886 110.51 247.889 110.458C247.893 110.405 247.881 110.352 247.855 110.307L247.07 110.887L246.868 111.615L246.594 112.447C246.635 112.527 246.7 112.593 246.779 112.636C246.858 112.679 246.948 112.698 247.038 112.69C247.219 112.654 247.378 112.549 247.483 112.397V112.397ZM257.224 115.209C257.224 115.209 257.328 116.583 256.445 117.375C255.402 118.32 250.998 122.289 250.736 122.368C248.898 122.923 249.03 121.246 249.412 120.477C249.793 119.708 250.55 117.715 252.013 116.18C253.318 114.815 255.777 112.431 257.224 115.209Z" fill="#FACCA3"/>
<path d="M255.005 118.863L251.802 115.877L255.005 113.421L257.246 114.061L257.779 116.088L255.005 118.863Z" fill="#19B4D8"/>
<path d="M251.802 115.877L255.004 118.863L254.79 119.077L251.587 116.088L251.802 115.877Z" fill="white"/>
<g style="mix-blend-mode:multiply">
<path d="M227.282 111.282C227.282 111.282 229.429 111.304 229.375 114.12C229.35 115.453 228.972 120.8 228.839 121.017C227.922 122.54 227.017 121.493 226.825 120.702C226.664 120.04 226.362 117.105 226.144 115.103C226.021 113.874 225.725 111.147 227.282 111.282V111.282Z" fill="#CD904D"/>
</g>
<path d="M224.536 111.528L226.195 109.564C226.195 109.564 230.504 110.251 231.456 112.534C233.01 116.263 232.985 122.206 232.985 122.206L226.885 122.285L224.536 111.528Z" fill="#CD904D"/>
<path d="M222.9 109.413L225.012 107.836C225.012 107.836 226.787 109.971 226.967 110.504C227.002 110.598 224.568 111.695 224.568 111.695L222.9 109.413Z" fill="#CD904D"/>
<path d="M221.579 106.503C221.579 106.661 221.734 106.878 221.712 106.973C221.672 107.227 221.686 107.487 221.753 107.736C222.087 108.997 221.92 108.912 222.125 109.35C222.279 109.665 222.648 109.87 223.386 109.842C223.925 109.823 224.99 108.647 225.176 108.492C226.04 107.78 225.961 105.686 225.782 104.87C225.4 103.145 224.026 103.278 223.083 103.713C221.677 104.347 221.545 105.898 221.579 106.503V106.503Z" fill="#CD904D"/>
<g style="mix-blend-mode:multiply">
<g style="mix-blend-mode:multiply">
<path d="M222.462 106.32C222.341 106.263 222.205 106.243 222.072 106.262C221.94 106.281 221.815 106.338 221.715 106.427" fill="#CD904D"/>
</g>
</g>
<path d="M222.147 107.275C222.222 107.275 222.282 107.21 222.282 107.13C222.282 107.05 222.222 106.985 222.147 106.985C222.072 106.985 222.011 107.05 222.011 107.13C222.011 107.21 222.072 107.275 222.147 107.275Z" fill="#014753"/>
<path d="M221.734 106.616C221.444 107.379 221.384 107.65 221.526 107.732C221.579 107.762 221.639 107.777 221.701 107.777C221.762 107.777 221.822 107.762 221.875 107.732C221.976 107.657 221.749 106.604 221.734 106.616V106.616Z" fill="#CD904D"/>
<g style="mix-blend-mode:multiply" opacity="0.67">
<path d="M224.199 109.485C224.161 109.511 224.568 110.563 224.199 111.232L223.193 109.842L224.199 109.485Z" fill="#CD904D"/>
</g>
<g style="mix-blend-mode:multiply" opacity="0.67">
<path d="M222.932 109.003C222.427 109.135 222.197 108.303 222.248 108.18" stroke="#CD904D" stroke-width="0.612368" stroke-miterlimit="10"/>
</g>
<g style="mix-blend-mode:multiply" opacity="0.67">
<path d="M221.898 107.184C221.934 107.28 221.992 107.367 222.067 107.438C222.142 107.509 222.231 107.562 222.33 107.594C222.522 107.654 222.919 107.594 222.96 107.278" fill="#CD904D"/>
</g>
<path d="M222.342 108.073C222.181 107.925 221.935 107.758 221.734 107.843V108.703L222.654 108.621C222.593 108.417 222.487 108.23 222.342 108.073V108.073Z" fill="#E6E6E6"/>
<path d="M226.337 109.586C226.337 109.586 230.857 110.33 231.696 112.546C232.42 114.607 232.844 116.762 232.957 118.943C233.212 122.679 232.894 122.184 232.894 122.184L226.794 122.263L224.549 111.881C224.549 111.881 226.567 110.869 226.337 109.586V109.586Z" fill="#054752"/>
<g style="mix-blend-mode:multiply">
<path d="M229.057 111.207C229.057 111.207 230.747 112.531 228.997 114.731C228.168 115.775 224.618 119.791 224.382 119.882C222.727 120.535 222.645 119.151 222.973 118.407C223.25 117.777 224.792 115.254 225.835 113.546C226.466 112.502 227.884 110.157 229.057 111.207V111.207Z" fill="#CD904D"/>
</g>
<path d="M229.066 111.207C229.066 111.207 230.756 112.531 229.007 114.731C228.177 115.775 224.628 119.791 224.391 119.882C222.736 120.535 222.654 119.151 222.985 118.407C223.259 117.777 224.804 115.254 225.845 113.546C226.475 112.502 227.913 110.157 229.066 111.207V111.207Z" fill="#01353A"/>
<g style="mix-blend-mode:multiply" opacity="0.67">
<path d="M224.243 106.79C224.243 106.79 224.42 107.36 224.183 107.534C224.081 107.604 223.957 107.637 223.833 107.628C223.833 107.628 224.114 108.464 224.511 108.164C224.908 107.865 224.243 106.79 224.243 106.79V106.79Z" fill="#CD904D"/>
</g>
<path d="M220.611 105.078C220.39 104.954 220.208 104.769 220.087 104.546C219.965 104.323 219.909 104.07 219.924 103.817C219.944 103.565 220.033 103.322 220.18 103.116C220.327 102.91 220.527 102.748 220.76 102.647C220.927 102.573 221.111 102.545 221.292 102.565C221.702 102.625 221.995 102.991 222.38 103.149C222.458 103.021 222.572 102.919 222.708 102.856C222.843 102.792 222.995 102.77 223.143 102.792C223.291 102.817 223.432 102.87 223.559 102.95C223.685 103.029 223.795 103.133 223.881 103.256C223.934 103.331 223.994 103.417 224.086 103.426C224.157 103.422 224.226 103.398 224.284 103.357C224.46 103.293 224.651 103.28 224.833 103.321C225.016 103.362 225.183 103.454 225.315 103.587C225.873 104.063 226.576 104.353 226.204 105.841C226.021 106.553 225.949 107.048 225.725 107.748C225.072 107.982 224.224 107.896 224.353 106.992C224.221 107.089 223.723 106.862 223.597 106.749C223.471 106.635 223.502 105.1 222.336 104.99C221.712 104.936 221.261 105.431 220.611 105.078V105.078Z" fill="#E6E6E6"/>
<path d="M223.751 107.127C223.751 107.127 223.884 106.538 224.149 106.698C224.413 106.859 224.41 107.546 224.149 107.515C224 107.501 223.855 107.455 223.726 107.379L223.751 107.127Z" fill="#CD904D"/>
<g style="mix-blend-mode:multiply">
<path d="M223.959 107.083C223.937 106.985 224.048 106.906 224.114 106.976C224.116 106.982 224.116 106.989 224.114 106.995C224.126 107.015 224.133 107.038 224.136 107.061C224.146 107.113 224.137 107.166 224.111 107.212C224.097 107.234 224.076 107.249 224.051 107.256C224.027 107.262 224.001 107.259 223.978 107.247L223.959 107.083Z" fill="#CD904D"/>
</g>
<path d="M193.725 105.366C193.507 105.65 193.245 105.899 192.999 106.161C192.609 106.58 191.401 107.501 191.423 108.61C191.445 110.436 192.684 110.767 193.526 110.817C193.753 110.871 193.988 110.883 194.219 110.852C194.573 110.738 195.348 110.407 195.547 110.098C196.209 109.077 195.231 107.204 195.547 106.032C195.711 105.401 195.998 104.039 195.156 103.752C195.021 103.702 194.872 103.703 194.737 103.755C194.602 103.806 194.491 103.905 194.424 104.033C194.156 104.471 194.046 104.953 193.725 105.366Z" fill="black"/>
<path d="M194.043 105.991L196.19 106.028C196.935 107.232 197.267 108.645 197.136 110.054C197.136 110.155 194.588 110.745 194.588 110.745L194.043 105.991Z" fill="#947347"/>
<g style="mix-blend-mode:multiply" opacity="0.64">
<path d="M195.878 106.366C195.818 106.391 195.812 108.153 194.336 108.516L194.021 106.104L195.878 106.366Z" fill="#947347"/>
</g>
<path d="M193.4 103.781C193.513 104.247 193.315 104.462 193.302 104.764C193.23 106.252 193.044 106.798 194.15 107.04C194.705 107.163 196.215 106.41 196.357 106.221C196.827 105.505 197.489 104.496 197.526 103.724C197.554 103.412 197.518 103.097 197.419 102.799C197.321 102.501 197.163 102.227 196.955 101.992C196.747 101.757 196.493 101.568 196.209 101.435C195.925 101.301 195.617 101.228 195.304 101.218C194.934 101.228 194.573 101.341 194.262 101.543C193.952 101.745 193.702 102.028 193.542 102.362C193.271 103.068 193.239 103.122 193.4 103.781V103.781Z" fill="#947347"/>
<g style="mix-blend-mode:multiply">
<path d="M194.421 103.68C194.338 103.588 194.228 103.525 194.106 103.5C193.955 103.481 193.803 103.481 193.652 103.5C193.637 103.497 193.624 103.489 193.615 103.477C193.605 103.465 193.6 103.451 193.6 103.435C193.6 103.42 193.605 103.406 193.615 103.394C193.624 103.382 193.637 103.374 193.652 103.371C193.818 103.358 193.986 103.365 194.15 103.393C194.286 103.427 194.409 103.501 194.503 103.604C194.515 103.616 194.521 103.633 194.521 103.649C194.521 103.666 194.514 103.682 194.502 103.694C194.49 103.706 194.473 103.712 194.457 103.712C194.44 103.712 194.424 103.705 194.412 103.692L194.421 103.68Z" fill="#947347"/>
</g>
<path d="M193.99 104.077C194.068 104.077 194.131 104.013 194.131 103.935C194.131 103.857 194.068 103.793 193.99 103.793C193.911 103.793 193.848 103.857 193.848 103.935C193.848 104.013 193.911 104.077 193.99 104.077Z" fill="black"/>
<path d="M193.416 103.771C193.349 104.007 193.242 104.23 193.1 104.43C192.977 104.6 193.192 104.771 193.35 104.78H193.309C193.863 104.452 193.416 103.771 193.416 103.771Z" fill="#947347"/>
<g style="mix-blend-mode:multiply">
<path d="M193.416 104.931C193.606 105.043 193.785 105.171 193.952 105.316C193.87 105.631 193.394 105.631 193.394 105.631C193.394 105.631 192.962 105.508 193.245 105.272C193.353 105.18 193.113 104.985 193.416 104.931V104.931Z" fill="#573A22"/>
</g>
<path d="M197.306 110.382C197.306 110.382 197.511 111.769 196.303 114.187C195.096 116.605 190.727 119.789 190.43 119.862C188.365 120.474 188.312 118.815 188.744 117.97C189.106 117.252 190.068 115.656 192.653 112.485C193.848 111.016 195.897 109.008 197.306 110.382Z" fill="#947347"/>
<path d="M200.162 114.493L198.406 121.489L193.17 121.539L192.64 114.402L200.162 114.493Z" fill="#E9CA91"/>
<path d="M194.09 115.76C194.09 115.76 191.398 115.997 191.398 114.414C191.398 113.573 191.467 114.146 193.687 110.984" fill="#E9CA91"/>
<path d="M198.57 108.945C197.94 109.625 197.066 110.028 196.14 110.067C194.63 110.102 194.292 109.506 194.292 109.506L193.977 110.136L191.414 114.008C191.414 114.008 190.875 115.253 192.76 115.76L193.186 121.53L198.422 121.476C198.422 121.476 200.821 114.682 200.348 112.305C199.875 109.928 198.586 108.932 198.586 108.932" fill="white"/>
<path d="M199.346 110.562C199.346 110.562 201.023 111.883 200.105 114.424C199.573 115.905 197.533 121.899 197.306 122.103C195.714 123.557 194.942 122.088 194.957 121.126C194.957 120.322 195.005 116.766 195.875 114.55C196.565 112.788 197.479 109.941 199.346 110.562Z" fill="#947347"/>
<path d="M199.724 116.24C199.724 116.24 201.757 110.735 199.065 110.42C196.685 110.139 195.421 115.171 195.421 115.171L199.724 116.24Z" fill="white"/>
<path d="M201.656 111.044C201.098 111.218 200.493 111.044 199.948 110.842C199.351 110.618 198.77 110.353 198.211 110.048C197.99 109.944 197.793 109.794 197.634 109.61C197.477 109.367 197.382 109.09 197.356 108.803C197.244 108.43 197.268 108.03 197.426 107.674C197.515 107.539 197.633 107.427 197.773 107.346C197.912 107.264 198.068 107.216 198.229 107.204C199.323 107.091 200.607 107.974 201.414 108.651C201.754 108.935 202.303 109.361 202.435 109.79C202.599 110.329 202.158 110.89 201.656 111.044V111.044Z" fill="black"/>
<path d="M202.303 106.634C202.622 106.719 202.904 106.91 203.1 107.176C203.197 107.383 203.239 107.611 203.223 107.838C203.241 108.07 203.195 108.302 203.091 108.51C202.991 108.645 202.858 108.754 202.705 108.825C202.552 108.896 202.383 108.927 202.215 108.916C201.31 108.916 200.559 108.254 199.734 107.885C199.359 107.751 198.996 107.589 198.646 107.4C198.472 107.304 198.325 107.165 198.221 106.996C198.116 106.827 198.058 106.634 198.05 106.435C198.151 104.358 201.502 106.325 202.303 106.634V106.634Z" fill="black"/>
<path d="M197.006 104.168C197.189 104.317 197.406 104.418 197.637 104.464C197.869 104.51 198.108 104.498 198.334 104.43C198.425 104.883 198.611 105.311 198.88 105.687C199.148 106.063 199.493 106.378 199.891 106.612C200.105 106.765 200.354 106.863 200.616 106.895C200.841 106.9 201.065 106.862 201.275 106.782C201.541 106.715 201.79 106.594 202.007 106.426C202.224 106.258 202.404 106.048 202.536 105.808C202.61 105.635 202.643 105.448 202.631 105.26C202.619 105.073 202.564 104.891 202.468 104.729C202.373 104.568 202.241 104.43 202.083 104.329C201.925 104.228 201.745 104.165 201.559 104.146C201.243 104.115 200.903 104.216 200.581 104.146C200.246 104.072 199.943 103.894 199.714 103.639C199.358 103.283 199.008 102.441 198.718 102.031C197.69 100.565 196.631 101.051 196.13 101.085C194.979 101.202 196.294 103.582 197.006 104.168V104.168Z" fill="black"/>
<path d="M195.591 102.523C195.506 102.523 193.384 102.901 192.801 102.006C192.249 101.164 192.959 99.8778 194.469 100.067C196.307 100.294 198.069 101.675 198.252 102.526C198.551 103.919 195.591 102.523 195.591 102.523V102.523Z" fill="black"/>
<path d="M193.854 101.75C193.854 101.75 194.579 104.506 195.506 104.386C196.433 104.266 196.559 102.706 196.559 102.706L193.854 101.75Z" fill="black"/>
<path d="M194.566 102.176C194.566 102.176 196.36 103.491 195.827 105.18C194.85 108.261 195.771 110.061 197.404 110.666C199.037 111.271 201.319 111.246 201.363 111.041C201.408 110.836 198.744 102.797 198.744 102.797L194.566 102.176Z" fill="black"/>
<path d="M195.569 104.389C195.569 104.389 195.941 103.948 196.143 104.178C196.344 104.408 196.07 105.206 195.827 105.098C195.688 105.038 195.556 104.959 195.437 104.865L195.569 104.389Z" fill="#947347"/>
<g style="mix-blend-mode:multiply">
<path d="M195.827 104.411C195.842 104.401 195.858 104.394 195.875 104.39C195.892 104.387 195.909 104.386 195.926 104.39C195.943 104.393 195.96 104.4 195.974 104.409C195.988 104.419 196.001 104.431 196.01 104.446C196.022 104.467 196.028 104.491 196.029 104.515C196.038 104.567 196.027 104.62 195.998 104.663C195.991 104.674 195.983 104.682 195.973 104.689C195.963 104.696 195.952 104.701 195.94 104.703C195.928 104.706 195.916 104.706 195.904 104.703C195.892 104.701 195.881 104.696 195.872 104.689" fill="#947347"/>
</g>
<path d="M160.066 123.598C159.886 124.465 158.694 124.436 158.694 124.436C156.342 123.601 153.672 122.472 152.178 121.914C151.897 121.813 151.837 121.678 151.673 121.599L151.844 120.458C160.072 120.732 160.22 122.854 160.066 123.598Z" fill="#CD8F4D"/>
<g style="mix-blend-mode:multiply">
<path d="M149.943 119.912C149.714 119.794 149.473 119.701 149.224 119.635C149.158 119.635 148.927 119.342 148.7 119.244C148.621 119.094 148.55 118.941 148.486 118.784C148.463 118.737 148.426 118.697 148.381 118.671C148.335 118.644 148.283 118.631 148.231 118.633L148.398 119.6L148.956 120.108L149.586 120.738C149.679 120.725 149.766 120.687 149.838 120.629C149.91 120.57 149.965 120.492 149.996 120.404C150.037 120.326 150.054 120.238 150.044 120.15C150.035 120.063 149.999 119.98 149.943 119.912V119.912Z" fill="#CD8F4D"/>
</g>
<path d="M150.567 119.263C150.712 119.342 150.967 119.578 151.081 119.641C151.512 119.922 151.553 120.117 152.301 120.776C153.114 121.492 152.424 122.081 152.029 121.867C151.9 121.798 151.749 121.672 151.613 121.605C150.938 121.367 150.275 121.094 149.627 120.789C149.572 120.71 149.537 120.62 149.524 120.525C149.512 120.43 149.522 120.333 149.555 120.243C149.594 120.153 149.661 120.078 149.746 120.028C149.831 119.978 149.93 119.956 150.028 119.966C150.106 119.994 150.21 120.042 150.283 119.922C150.318 119.842 150.322 119.752 150.295 119.67C150.267 119.587 150.21 119.517 150.135 119.474C149.756 119.209 149.709 119.014 149.788 118.919C149.892 119.011 150.349 119.134 150.567 119.263V119.263Z" fill="#CD8F4D"/>
<path d="M150.147 120.061C149.943 119.902 149.726 119.762 149.498 119.641C149.435 119.616 149.265 119.295 149.06 119.156C149.031 119.134 149.003 118.882 148.943 118.661C148.93 118.609 148.902 118.563 148.863 118.527C148.824 118.491 148.775 118.468 148.722 118.459L148.691 119.443L149.139 120.054L149.627 120.789C149.716 120.806 149.808 120.795 149.891 120.759C149.975 120.723 150.045 120.663 150.094 120.587C150.177 120.425 150.196 120.237 150.147 120.061V120.061ZM164.983 116.492C164.983 116.492 165.299 117.838 164.558 118.765C163.672 119.859 160.28 124.518 159 124.38C157.083 124.172 157.814 123.781 158.07 122.961C158.325 122.141 158.763 120.042 159.961 118.289C161.049 116.719 163.111 113.967 164.983 116.492V116.492Z" fill="#CD8F4D"/>
<path d="M167.417 117.28C167.417 117.28 168.016 118.721 167.345 119.887C166.55 121.259 163.209 127.091 162.956 127.267C161.172 128.509 160.724 126.656 160.866 125.691C161.008 124.726 161.118 122.321 162.152 120.155C163.079 118.229 164.886 114.805 167.417 117.28V117.28Z" fill="#CD904D"/>
<path d="M167.275 120.054L164.965 127.129L158.953 127.176L158.47 120.193L167.275 120.054Z" fill="#CD904D"/>
<path d="M165.813 129.704C165.857 129.796 166.992 131.385 167.13 132.813C167.269 134.241 165.797 136.114 165.797 136.114L160.009 136.177L159.328 132.17L159.012 127.044L164.971 127.126C165.195 128.003 165.476 128.864 165.813 129.704V129.704ZM161.241 110.707L164.593 110.754C164.593 110.754 165.1 112.283 165.024 115.121C165.024 115.234 162.137 116.066 162.137 116.066L161.241 110.707Z" fill="#CD904D"/>
<path d="M159.063 117.866C159.728 116.697 161.976 114.058 161.976 114.058L164.961 113.56C164.961 113.56 167.105 115.08 167.644 117.614C167.663 117.712 167.458 120.373 167.458 120.373H158.442C158.442 120.373 159.035 117.898 159.063 117.866V117.866ZM160.296 108.005C160.373 108.185 160.424 108.375 160.447 108.569C160.447 108.885 160.264 109.2 160.27 109.386C160.337 110.877 159.996 110.729 160.122 111.278C160.22 111.681 160.753 111.703 161.61 111.876C162.241 112.003 163.839 111.293 164.101 111.177C165.305 110.628 165.762 108.286 165.762 107.334C165.762 105.319 164.101 105.083 162.878 105.303C162.288 105.403 161.735 105.66 161.279 106.047C160.557 106.653 160.223 107.87 160.296 108.005V108.005Z" fill="#CD904D"/>
<path d="M161.484 108.018C161.337 107.889 161.15 107.812 160.954 107.801C160.758 107.789 160.564 107.844 160.403 107.955" fill="black"/>
<g style="mix-blend-mode:multiply">
<g style="mix-blend-mode:multiply">
<path d="M160.958 108.721C161.048 108.721 161.122 108.647 161.122 108.557C161.122 108.466 161.048 108.393 160.958 108.393C160.867 108.393 160.794 108.466 160.794 108.557C160.794 108.647 160.867 108.721 160.958 108.721Z" fill="#014753"/>
</g>
</g>
<path d="M160.491 108.207C160.303 108.656 160.093 109.094 159.86 109.522C159.86 109.569 160.248 109.632 160.295 109.632C160.343 109.632 160.491 108.207 160.491 108.207V108.207Z" fill="#CD904D"/>
<g style="mix-blend-mode:multiply" opacity="0.67">
<path d="M163.133 111.968C163.067 111.999 163.508 113.822 161.831 114.323L161.43 111.851L163.133 111.968Z" fill="#CD904D"/>
</g>
<path d="M161.103 106.293C161.103 106.293 162.925 103.941 165.614 105.546C167.253 106.52 166.528 108.967 164.712 111.047C164.687 111.076 163.908 110.893 163.691 110.527C163.417 110.076 163.435 108.749 163.435 108.749L162.49 108.948C162.49 108.948 162.247 107.907 162.2 107.728C162.004 106.952 161.103 106.293 161.103 106.293Z" fill="black"/>
<g style="mix-blend-mode:multiply" opacity="0.67">
<path d="M163.546 108.431C163.546 108.431 163.609 109.109 163.281 109.235C163.139 109.282 162.985 109.282 162.843 109.235C162.843 109.235 162.959 110.237 163.508 110.013C164.056 109.789 163.546 108.431 163.546 108.431V108.431Z" fill="#CD904D"/>
</g>
<path d="M162.881 108.664C162.881 108.664 163.196 108.049 163.458 108.301C163.529 108.376 163.577 108.47 163.597 108.571C163.616 108.673 163.605 108.778 163.566 108.874C163.526 108.969 163.46 109.051 163.375 109.11C163.289 109.168 163.189 109.201 163.085 109.203C162.77 109.203 162.729 109.127 162.729 109.127L162.881 108.664Z" fill="#CD904D"/>
<g style="mix-blend-mode:multiply">
<path d="M163.133 108.673C163.133 108.649 163.141 108.625 163.155 108.606C163.169 108.586 163.189 108.571 163.212 108.562C163.235 108.554 163.26 108.553 163.284 108.56C163.307 108.566 163.328 108.579 163.344 108.598C163.346 108.606 163.346 108.615 163.344 108.623C163.35 108.65 163.35 108.678 163.344 108.705C163.343 108.766 163.318 108.823 163.275 108.866C163.252 108.885 163.223 108.896 163.193 108.896C163.163 108.896 163.134 108.885 163.111 108.866L163.133 108.673ZM160.267 109.925C160.267 109.925 160.708 110.035 160.699 110.114C160.68 110.281 160.236 110.297 160.236 110.297L160.267 109.925Z" fill="#CD904D"/>
</g>
<path d="M158.997 106.35C159.016 106.167 159.106 105.998 159.248 105.88C159.39 105.762 159.573 105.705 159.757 105.72C159.905 105.742 160.043 105.817 160.192 105.842C160.265 105.863 160.343 105.857 160.412 105.825C160.481 105.792 160.536 105.736 160.567 105.666C160.605 105.54 160.523 105.414 160.494 105.288C160.477 105.131 160.518 104.973 160.608 104.844C160.699 104.715 160.833 104.623 160.986 104.585C161.301 104.493 161.617 104.739 161.932 104.723C162.878 104.676 163.704 104.449 164.794 105.174L163.625 106.12C163.694 106.088 163.735 106.202 163.726 106.281C163.646 106.725 163.404 107.125 163.048 107.403C162.87 107.566 162.652 107.68 162.417 107.734C160.86 108.002 162.02 106.385 160.623 106.858C160.22 107.088 159.974 107.28 159.618 107.173C159.437 107.125 159.277 107.018 159.165 106.869C159.052 106.72 158.993 106.537 158.997 106.35V106.35Z" fill="black"/>
<path d="M165.217 113.617L161.087 115.029L158.994 117.866L158.47 120.051L159.236 130.612L165.633 129.134L164.958 127.031L167.578 119.903C167.578 119.903 168.193 117.252 166.947 115.669C165.702 114.086 165.223 113.62 165.223 113.62" fill="#FF595A"/>
<path d="M165.321 113.573L160.951 115.212Z" fill="#ED6A5E"/>
<path opacity="0.67" d="M153.76 122.52C163.086 122.52 161.557 124.881 161.408 125.726Z" fill="#CD904D"/>
<path d="M151.657 125.839C151.802 125.839 151.943 125.801 152.069 125.73C152.195 125.659 152.3 125.557 152.375 125.433C152.449 125.31 152.491 125.169 152.496 125.025C152.5 124.881 152.468 124.738 152.401 124.61L149.164 118.443C149.112 118.346 149.042 118.259 148.958 118.189C148.873 118.119 148.775 118.065 148.67 118.033C148.565 118 148.454 117.989 148.344 117.999C148.235 118.009 148.128 118.04 148.03 118.092C147.933 118.143 147.846 118.213 147.776 118.298C147.706 118.383 147.653 118.48 147.62 118.586C147.587 118.691 147.576 118.802 147.586 118.911C147.596 119.021 147.628 119.128 147.679 119.225L150.917 125.388C150.987 125.524 151.094 125.638 151.224 125.717C151.355 125.797 151.505 125.839 151.657 125.839V125.839Z" fill="#022327"/>
<path opacity="0.12" d="M166.875 116.697C166.875 116.905 167.821 118.664 166.121 122.523C164.34 126.542 159.142 128.339 159.142 128.339L158.993 126.593L166.875 116.697Z" fill="#022327"/>
<path d="M161.698 126.154C161.525 127.144 160.176 127.154 160.176 127.154C157.48 126.29 154.416 125.105 152.704 124.534C152.389 124.427 152.31 124.276 152.124 124.197L152.275 122.898C161.601 122.92 161.847 125.316 161.698 126.154V126.154ZM150.1 122.349C149.839 122.222 149.564 122.125 149.28 122.059C149.205 122.059 148.934 121.744 148.672 121.634C148.576 121.469 148.489 121.298 148.414 121.123C148.385 121.07 148.342 121.027 148.289 120.998C148.237 120.969 148.177 120.955 148.117 120.959L148.341 122.047L148.994 122.605L149.719 123.286C149.823 123.268 149.921 123.221 150.001 123.152C150.081 123.083 150.14 122.992 150.173 122.892C150.215 122.804 150.23 122.706 150.218 122.61C150.205 122.513 150.164 122.423 150.1 122.349V122.349Z" fill="#CD8F4D"/>
<path d="M150.787 121.59C150.951 121.675 151.248 121.924 151.38 122.003C151.881 122.302 151.935 122.523 152.805 123.242C153.751 124.027 152.991 124.717 152.534 124.503C152.386 124.427 152.219 124.288 152.052 124.222C151.635 124.039 150.412 123.711 149.775 123.364C149.71 123.278 149.667 123.176 149.65 123.069C149.632 122.962 149.641 122.853 149.675 122.75C149.717 122.646 149.79 122.559 149.884 122.499C149.979 122.44 150.09 122.412 150.201 122.419C150.292 122.45 150.409 122.498 150.488 122.359C150.524 122.267 150.525 122.164 150.491 122.071C150.457 121.978 150.389 121.901 150.302 121.854C149.867 121.574 149.807 121.35 149.892 121.24C150.021 121.328 150.523 121.454 150.787 121.59V121.59Z" fill="#CD8F4D"/>
<path d="M150.337 122.507C150.098 122.334 149.843 122.183 149.577 122.056C149.504 122.028 149.299 121.672 149.063 121.517C149.002 121.335 148.951 121.15 148.912 120.962C148.894 120.905 148.861 120.854 148.816 120.815C148.771 120.776 148.715 120.75 148.656 120.741V121.854L149.186 122.532L149.763 123.349C149.864 123.364 149.968 123.35 150.061 123.306C150.154 123.263 150.233 123.194 150.286 123.106C150.379 122.92 150.397 122.706 150.337 122.507V122.507ZM166.285 117.286C166.285 117.286 166.815 118.762 166.084 119.9C165.22 121.24 161.985 126.905 160.513 126.905C158.328 126.905 159.104 126.375 159.29 125.42C159.476 124.465 159.712 122.047 160.866 119.922C161.891 118.024 163.874 114.67 166.285 117.286V117.286Z" fill="#CD8F4D"/>
<path d="M160.611 120.237L164.69 122.444C164.69 122.444 168.473 117.302 166.412 116.255C164.35 115.209 161.746 115.121 160.611 120.237V120.237Z" fill="#FF595A"/>
<path d="M164.816 122.006L160.69 119.969C160.261 119.755 159.879 120.401 160.311 120.615L164.438 122.652C164.87 122.863 165.248 122.22 164.816 122.006Z" fill="white"/>
<path d="M165.655 114.175C165.655 114.175 159.255 116.382 158.719 119.402C158.404 121.079 158.581 121.325 158.581 121.325C159.264 119.701 160.349 118.278 161.735 117.19C163.12 116.103 164.76 115.386 166.5 115.108" fill="#022327"/>
<path d="M164.895 112.791L162.55 114.348L162.092 115.905L165.853 114.165L164.895 112.791ZM161.374 114.241L161.058 115.061L161.446 116.167L162.026 115.19L161.374 114.241Z" fill="white"/>
<path d="M140.498 129.482C140.498 130.496 140.498 131.454 140.528 132.344C140.558 134.034 140.595 135.478 140.65 136.588C140.658 137.345 140.731 138.1 140.87 138.845C141.742 141.796 146.1 141.796 146.1 141.796H317.377C317.562 141.796 317.747 141.784 317.93 141.759L334.854 139.335C335.809 139.19 336.68 138.706 337.308 137.972C337.936 137.238 338.278 136.302 338.273 135.337V91.8371C338.281 90.8305 337.911 89.8576 337.234 89.112C336.558 88.3663 335.626 87.9026 334.624 87.813C334.522 87.8075 334.421 87.8075 334.319 87.813L308.545 87.6943L297.142 87.6386L275.982 87.5383L211.416 87.2302L190.256 87.13C167.144 87.0224 150.198 86.9444 148.394 86.9444C144.311 86.9444 142.302 89.0715 141.43 90.471C141.046 91.0879 140.837 91.7974 140.825 92.5238V93.5261C142.952 93.4964 167.122 93.3034 167.122 93.6783H166.621L166.498 115.109C156.528 116.972 150.265 128.851 140.498 129.482V129.482ZM175.946 115.688L176.068 93.9827H227.668C227.865 94.0439 228.07 94.0751 228.277 94.0755H274.998C275.206 94.0749 275.412 94.0436 275.611 93.9827H306.611C306.81 94.0439 307.016 94.0752 307.224 94.0755H327.147C327.352 94.0754 327.556 94.0442 327.752 93.9827H332.485V115.688H175.946ZM150.172 95.6977C149.047 95.7085 147.971 96.1651 147.181 96.9673C146.392 97.7696 145.952 98.8522 145.959 99.9779V103.965C145.952 105.091 146.392 106.173 147.181 106.975C147.971 107.778 149.047 108.234 150.172 108.245V95.6977Z" fill="#FF595A"/>
<path opacity="0.45" d="M268.576 127.081H286.328C287.712 127.081 288.833 125.959 288.833 124.575C288.833 123.191 287.712 122.069 286.328 122.069H268.576C267.192 122.069 266.07 123.191 266.07 124.575C266.07 125.959 267.192 127.081 268.576 127.081Z" fill="white"/>
<path opacity="0.45" d="M204.029 127.081H221.78C223.164 127.081 224.286 125.959 224.286 124.575C224.286 123.191 223.164 122.069 221.78 122.069H204.029C202.645 122.069 201.523 123.191 201.523 124.575C201.523 125.959 202.645 127.081 204.029 127.081Z" fill="white"/>
<path opacity="0.45" d="M226.194 90.9461V91.7962C226.196 92.2431 226.342 92.6774 226.609 93.0355C226.876 93.3936 227.251 93.6566 227.679 93.786C227.876 93.8459 228.082 93.876 228.288 93.8751H275.009C275.283 93.8765 275.554 93.8238 275.807 93.7199C276.06 93.616 276.29 93.463 276.484 93.2697C276.678 93.0764 276.831 92.8467 276.935 92.5938C277.04 92.3409 277.093 92.0698 277.092 91.7962V90.9461C277.09 90.3948 276.87 89.8666 276.48 89.4771C276.089 89.0875 275.561 88.8683 275.009 88.8673H228.273C227.722 88.8693 227.195 89.0889 226.805 89.4784C226.416 89.8678 226.196 90.3954 226.194 90.9461V90.9461ZM305.137 90.9461V91.7962C305.137 92.0698 305.19 92.3409 305.294 92.5938C305.398 92.8467 305.552 93.0764 305.745 93.2697C305.939 93.463 306.169 93.616 306.422 93.7199C306.675 93.8238 306.946 93.8765 307.22 93.8751H327.143C327.348 93.8762 327.552 93.8462 327.748 93.786C328.176 93.6561 328.55 93.3929 328.818 93.0349C329.085 92.677 329.23 92.2429 329.233 91.7962V90.9461C329.231 90.3954 329.012 89.8678 328.622 89.4784C328.233 89.0889 327.705 88.8693 327.155 88.8673H307.231C306.957 88.8663 306.686 88.9193 306.432 89.0233C306.179 89.1272 305.948 89.2801 305.754 89.4731C305.559 89.6662 305.405 89.8956 305.299 90.1483C305.193 90.4011 305.138 90.6722 305.137 90.9461V90.9461Z" fill="white"/>
<path d="M297.141 87.8093H275.993V85.2516H297.141V87.8093Z" fill="#FF595A"/>
<path d="M308.419 87.8279H335.006V85.2294C335.009 84.8174 334.932 84.4089 334.777 84.027C334.623 83.6451 334.394 83.2974 334.106 83.0037C333.817 82.71 333.473 82.4761 333.094 82.3153C332.714 82.1545 332.307 82.07 331.895 82.0666H313.858L308.419 87.8279Z" fill="#FF595A"/>
<path d="M311.786 86.2985H331.461V85.0177C331.461 84.6059 331.297 84.2108 331.006 83.9192C330.715 83.6276 330.321 83.4633 329.909 83.4623H314.503L311.786 86.2985Z" fill="#054752"/>
<path d="M211.427 87.8093H190.279V85.2516H211.427V87.8093Z" fill="#FF595A"/>
<path d="M327.748 93.7859H306.589C306.788 93.8459 306.994 93.8759 307.201 93.8751H327.125C327.336 93.8781 327.546 93.848 327.748 93.7859V93.7859ZM275.607 93.7859H227.664C227.861 93.8459 228.067 93.8759 228.273 93.8751H274.995C275.202 93.8757 275.408 93.8456 275.607 93.7859V93.7859Z" fill="white"/>
<g style="mix-blend-mode:multiply" opacity="0.45">
<path d="M199.99 140.912V133.269C199.99 131.389 199.244 129.586 197.916 128.255C196.588 126.925 194.787 126.175 192.907 126.171H186.425C184.543 126.171 182.738 126.919 181.407 128.25C180.075 129.581 179.328 131.386 179.328 133.269V140.912H199.99Z" fill="#044752"/>
</g>
<path d="M180.189 136.706C180.026 138.534 180.408 140.369 181.287 141.979C182.166 143.59 183.502 144.904 185.128 145.755C186.754 146.606 188.595 146.956 190.419 146.761C192.244 146.566 193.969 145.834 195.378 144.659C196.787 143.483 197.816 141.916 198.334 140.156C198.853 138.397 198.839 136.522 198.292 134.771C197.746 133.019 196.693 131.468 195.266 130.315C193.839 129.162 192.102 128.457 190.275 128.291C189.058 128.171 187.83 128.295 186.662 128.655C185.494 129.015 184.409 129.604 183.47 130.387C182.531 131.17 181.758 132.132 181.195 133.217C180.631 134.302 180.289 135.488 180.189 136.706Z" fill="#054752"/>
<path d="M188.274 127.797C188.954 127.716 189.641 127.706 190.323 127.767L190.553 127.797L189.44 137.538L188.274 127.797ZM190.617 147.223C189.935 147.302 189.247 147.312 188.564 147.253L188.334 147.223L189.447 137.482L190.617 147.223Z" fill="#054752"/>
<path d="M179.74 138.685C179.659 138.005 179.649 137.318 179.71 136.636C179.71 136.558 179.71 136.48 179.736 136.402L189.481 137.516L179.74 138.685ZM199.147 136.331C199.23 137.011 199.24 137.698 199.177 138.38C199.177 138.458 199.177 138.536 199.151 138.614L189.41 137.501L199.147 136.331Z" fill="#054752"/>
<path d="M195.479 129.813C196.023 130.236 196.521 130.715 196.964 131.242L197.109 131.424L189.417 137.527L195.479 129.813ZM183.411 145.192C182.866 144.771 182.368 144.292 181.926 143.763L181.781 143.581L189.455 137.478L183.411 145.192Z" fill="#054752"/>
<path d="M181.77 131.468C182.196 130.927 182.674 130.429 183.199 129.984L183.385 129.839L189.484 137.516L181.77 131.468ZM197.135 143.537C196.712 144.08 196.233 144.578 195.706 145.022L195.52 145.166L189.421 137.49L197.135 143.537Z" fill="#054752"/>
<path d="M192.165 128.113C192.823 128.305 193.46 128.565 194.065 128.888L194.266 129.007L189.44 137.545L192.165 128.113ZM186.722 146.889C186.064 146.7 185.428 146.44 184.826 146.113C184.755 146.078 184.687 146.04 184.621 145.998L189.447 137.46L186.722 146.889Z" fill="#054752"/>
<path d="M180.055 134.78C180.247 134.122 180.507 133.487 180.831 132.883L180.946 132.679L189.484 137.504L180.055 134.78ZM198.846 140.225C198.654 140.883 198.394 141.519 198.07 142.122L197.955 142.327L189.417 137.501L198.846 140.225Z" fill="#054752"/>
<path d="M197.803 132.437C198.158 133.024 198.451 133.646 198.676 134.293L198.746 134.516L189.41 137.516L197.803 132.437Z" fill="#054752"/>
<path d="M181.084 142.568C180.728 141.981 180.436 141.359 180.211 140.712L180.141 140.489L189.477 137.49L181.084 142.568Z" fill="#054752"/>
<path d="M184.369 129.141C184.956 128.787 185.578 128.495 186.225 128.269L186.448 128.198L189.447 137.534L184.369 129.141ZM194.511 145.864C193.923 146.216 193.301 146.507 192.655 146.733L192.432 146.803L189.432 137.467L194.511 145.864Z" fill="#054752"/>
<g style="mix-blend-mode:multiply" opacity="0.49">
<g style="mix-blend-mode:multiply" opacity="0.49">
<path d="M181.258 141.866C181.847 142.988 182.661 143.977 183.648 144.772C184.635 145.567 185.774 146.151 186.996 146.488C188.218 146.824 189.496 146.906 190.751 146.729C192.006 146.552 193.211 146.119 194.291 145.456C195.372 144.794 196.305 143.918 197.033 142.88C197.761 141.843 198.268 140.667 198.524 139.426C198.779 138.184 198.776 136.904 198.516 135.663C198.256 134.423 197.745 133.249 197.013 132.215L192.016 135.27L186.247 138.811L181.258 141.866Z" fill="#004553"/>
</g>
</g>
<path d="M184.061 137.052C183.965 138.115 184.186 139.183 184.697 140.121C185.208 141.058 185.985 141.824 186.93 142.32C187.876 142.816 188.947 143.021 190.009 142.908C191.071 142.796 192.075 142.371 192.896 141.688C193.717 141.005 194.316 140.094 194.619 139.07C194.922 138.046 194.915 136.955 194.598 135.935C194.282 134.916 193.67 134.013 192.84 133.341C192.011 132.668 191 132.257 189.937 132.159C189.23 132.094 188.517 132.168 187.838 132.379C187.16 132.59 186.53 132.932 185.984 133.386C185.438 133.841 184.987 134.398 184.657 135.027C184.327 135.656 184.125 136.344 184.061 137.052V137.052Z" fill="white"/>
<path d="M189.288 139.253C188.836 139.21 188.418 138.992 188.126 138.645C187.834 138.298 187.69 137.849 187.725 137.397C187.755 137.064 187.881 136.748 188.088 136.486C188.295 136.223 188.573 136.027 188.89 135.92C189.206 135.814 189.547 135.801 189.87 135.885C190.193 135.968 190.485 136.144 190.711 136.39C190.936 136.636 191.085 136.943 191.14 137.272C191.194 137.602 191.151 137.94 191.017 138.245C190.883 138.551 190.663 138.811 190.383 138.994C190.104 139.177 189.777 139.274 189.443 139.275L189.288 139.253ZM188.233 137.43C188.214 137.669 188.267 137.908 188.383 138.117C188.5 138.326 188.676 138.496 188.889 138.606C189.103 138.715 189.343 138.759 189.581 138.732C189.819 138.704 190.044 138.607 190.227 138.453C190.41 138.298 190.543 138.093 190.61 137.863C190.676 137.633 190.673 137.388 190.601 137.159C190.528 136.931 190.39 136.729 190.203 136.579C190.017 136.429 189.79 136.338 189.551 136.316H189.44C189.136 136.317 188.843 136.432 188.62 136.638C188.396 136.845 188.258 137.127 188.233 137.43V137.43Z" fill="#054752"/>
<path d="M262.173 135.867H258.687V134.416H262.173V135.867Z" fill="#054752"/>
<path d="M219.089 135.867H215.603V134.416H219.089V135.867Z" fill="#054752"/>
<path d="M153.149 135.867H149.664V134.416H153.149V135.867Z" fill="#054752"/>
<path d="M143.947 131.509C143.947 131.509 143.891 134.264 143.602 134.676C143.056 135.459 141.831 135.745 140.417 135.678V131.509H143.947Z" fill="#054752"/>
<path d="M145.959 99.6809V103.605C145.962 104.721 146.407 105.791 147.196 106.579C147.986 107.368 149.056 107.812 150.172 107.814V95.4713C149.056 95.4733 147.986 95.9173 147.196 96.7062C146.407 97.4951 145.962 98.5647 145.959 99.6809V99.6809Z" fill="white"/>
<path d="M145.959 99.9779V103.965C145.952 105.091 146.391 106.173 147.181 106.975C147.971 107.778 149.046 108.234 150.172 108.245V95.6978C149.046 95.7085 147.971 96.1651 147.181 96.9673C146.391 97.7696 145.952 98.8522 145.959 99.9779V99.9779Z" fill="#FF595A"/>
<path d="M336.223 131.105H338.191C338.47 131.105 338.696 130.879 338.696 130.6V115.692C338.696 115.413 338.47 115.187 338.191 115.187H336.223C335.944 115.187 335.718 115.413 335.718 115.692V130.6C335.718 130.879 335.944 131.105 336.223 131.105Z" fill="#054752"/>
<g style="mix-blend-mode:multiply" opacity="0.45">
<path d="M311.482 140.912V133.269C311.482 131.386 310.734 129.581 309.403 128.25C308.072 126.919 306.266 126.171 304.384 126.171H297.917C296.035 126.171 294.23 126.919 292.898 128.25C291.567 129.581 290.82 131.386 290.82 133.269V140.912H311.482Z" fill="#044752"/>
</g>
<path d="M291.696 136.547C291.533 138.374 291.916 140.209 292.795 141.819C293.675 143.429 295.012 144.742 296.638 145.593C298.263 146.443 300.104 146.793 301.929 146.597C303.753 146.402 305.478 145.67 306.887 144.494C308.295 143.318 309.324 141.752 309.842 139.992C310.36 138.232 310.345 136.358 309.799 134.606C309.253 132.855 308.2 131.305 306.773 130.151C305.346 128.998 303.609 128.294 301.782 128.127C300.565 128.008 299.336 128.132 298.168 128.492C296.999 128.852 295.914 129.441 294.975 130.225C294.037 131.008 293.263 131.971 292.7 133.056C292.137 134.141 291.796 135.328 291.696 136.547V136.547Z" fill="#054752"/>
<path d="M299.777 127.637C300.459 127.557 301.146 127.547 301.83 127.608L302.06 127.637L300.946 137.378L299.777 127.637Z" fill="#054752"/>
<path d="M302.123 147.048C301.442 147.128 300.754 147.137 300.07 147.074C299.993 147.074 299.918 147.056 299.84 147.048L300.954 137.308L302.123 147.048Z" fill="#054752"/>
<path d="M291.247 138.514C291.164 137.834 291.154 137.147 291.217 136.465C291.217 136.387 291.235 136.309 291.243 136.231L300.987 137.345L291.247 138.514Z" fill="#054752"/>
<path d="M310.654 136.172C310.736 136.852 310.746 137.539 310.684 138.221C310.684 138.299 310.684 138.377 310.658 138.455L300.913 137.341L310.654 136.172Z" fill="#054752"/>
<path d="M306.982 129.653C307.527 130.076 308.024 130.555 308.467 131.082L308.612 131.264L300.931 137.367L306.982 129.653ZM294.918 145.033C294.374 144.61 293.876 144.131 293.433 143.604L293.288 143.422L300.965 137.319L294.918 145.033Z" fill="#054752"/>
<path d="M293.259 131.309C293.682 130.765 294.161 130.268 294.688 129.824C294.747 129.772 294.81 129.727 294.873 129.679L300.973 137.356L293.259 131.309Z" fill="#054752"/>
<path d="M308.642 143.377C308.218 143.92 307.739 144.417 307.213 144.862L307.027 145.007L300.932 137.315L308.642 143.377Z" fill="#054752"/>
<path d="M303.671 127.953C304.33 128.146 304.966 128.406 305.572 128.729L305.772 128.848L300.946 137.386L303.671 127.953ZM298.229 146.729C297.569 146.54 296.932 146.28 296.328 145.953L296.128 145.838L300.954 137.3L298.229 146.729Z" fill="#054752"/>
<path d="M291.562 134.62C291.754 133.963 292.014 133.327 292.338 132.723L292.453 132.519L300.991 137.345L291.562 134.62ZM310.338 140.066C310.145 140.723 309.885 141.359 309.562 141.963L309.447 142.167L300.909 137.341L310.338 140.066Z" fill="#054752"/>
<path d="M309.31 132.278C309.665 132.864 309.958 133.486 310.182 134.134L310.253 134.356L300.932 137.356L309.31 132.278ZM292.59 142.397C292.235 141.811 291.943 141.189 291.718 140.541L291.647 140.318L300.984 137.319L292.59 142.397Z" fill="#054752"/>
<path d="M295.887 128.981C296.474 128.628 297.096 128.335 297.743 128.109L297.966 128.038L300.961 137.374L295.887 128.981Z" fill="#054752"/>
<path d="M306.014 145.701C305.427 146.056 304.805 146.348 304.158 146.573L303.935 146.644L300.932 137.308L306.014 145.701Z" fill="#054752"/>
<g style="mix-blend-mode:multiply" opacity="0.49">
<g style="mix-blend-mode:multiply" opacity="0.49">
<path d="M292.765 141.707C293.356 142.825 294.17 143.811 295.157 144.603C296.144 145.395 297.282 145.976 298.503 146.31C299.723 146.645 300.999 146.726 302.251 146.548C303.504 146.37 304.707 145.937 305.786 145.277C306.865 144.616 307.797 143.741 308.525 142.706C309.252 141.671 309.76 140.497 310.017 139.258C310.273 138.019 310.273 136.741 310.016 135.502C309.759 134.263 309.251 133.09 308.523 132.055L303.53 135.11L297.761 138.651L292.765 141.707Z" fill="#004553"/>
</g>
</g>
<path d="M295.567 136.892C295.471 137.956 295.693 139.024 296.204 139.963C296.715 140.901 297.492 141.666 298.439 142.162C299.385 142.658 300.457 142.863 301.519 142.749C302.581 142.636 303.586 142.21 304.406 141.526C305.227 140.842 305.826 139.93 306.128 138.905C306.43 137.88 306.421 136.789 306.103 135.769C305.784 134.749 305.171 133.847 304.339 133.176C303.508 132.505 302.497 132.095 301.433 131.999C300.006 131.87 298.587 132.313 297.487 133.231C296.387 134.148 295.696 135.465 295.567 136.892V136.892Z" fill="white"/>
<path d="M300.794 139.093C300.342 139.052 299.924 138.834 299.632 138.486C299.339 138.139 299.195 137.69 299.231 137.237C299.262 136.905 299.388 136.588 299.595 136.326C299.801 136.064 300.08 135.868 300.396 135.761C300.713 135.654 301.053 135.642 301.377 135.725C301.7 135.808 301.992 135.984 302.217 136.23C302.443 136.477 302.592 136.783 302.646 137.113C302.701 137.442 302.658 137.78 302.524 138.086C302.389 138.391 302.169 138.652 301.89 138.834C301.61 139.017 301.284 139.115 300.95 139.116L300.794 139.093ZM299.736 137.267C299.717 137.505 299.77 137.744 299.886 137.953C300.003 138.162 300.179 138.332 300.392 138.442C300.605 138.551 300.845 138.595 301.083 138.568C301.321 138.541 301.545 138.444 301.729 138.29C301.912 138.136 302.045 137.931 302.112 137.701C302.179 137.471 302.176 137.227 302.104 136.998C302.033 136.77 301.895 136.568 301.709 136.417C301.523 136.267 301.296 136.175 301.058 136.153H300.946C300.642 136.155 300.349 136.27 300.126 136.476C299.902 136.682 299.763 136.964 299.736 137.267V137.267Z" fill="#054752"/>
<path d="M327.221 93.9976H306.062C306.259 94.0587 306.464 94.09 306.671 94.0904H326.594C326.807 94.0919 327.018 94.0606 327.221 93.9976V93.9976ZM275.076 93.9976H227.137C227.333 94.059 227.537 94.0903 227.742 94.0904H274.464C274.671 94.0903 274.878 94.059 275.076 93.9976V93.9976Z" fill="white"/>
<path opacity="0.4" d="M138.476 121.642L128.431 112.708L114.752 107.126H82.9342L75.678 112.708V118.571L110.289 122.479H127.872L138.476 121.642Z" fill="white"/>
<path d="M111.526 118.675C111.526 118.675 111.011 119.919 111.589 120.919C112.274 122.105 115.152 127.131 115.374 127.283C116.908 128.353 117.293 126.757 117.175 125.931C117.056 125.105 116.956 123.027 116.063 121.16C115.267 119.493 113.708 116.538 111.526 118.675V118.675Z" fill="#CE914D"/>
<path d="M111.648 121.064L113.641 127.164L118.823 127.202L119.238 121.186L111.648 121.064Z" fill="#CE914D"/>
<path d="M112.911 129.383C112.874 129.461 111.893 130.832 111.774 132.061C111.656 133.291 112.926 134.91 112.926 134.91L117.912 134.962L118.501 131.509L118.782 127.09L113.645 127.161C113.448 127.917 113.203 128.659 112.911 129.383V129.383ZM116.852 113.019L113.963 113.059C113.963 113.059 113.526 114.363 113.593 116.804C113.593 116.904 116.082 117.612 116.082 117.612L116.852 113.019Z" fill="#CE914D"/>
<path d="M118.727 119.19C118.156 118.178 116.215 115.904 116.215 115.904L113.645 115.486C112.501 116.355 111.686 117.586 111.333 118.979C111.333 119.06 111.493 121.353 111.493 121.353H119.271C119.271 121.353 118.745 119.208 118.727 119.19V119.19ZM117.663 110.67C117.597 110.825 117.553 110.988 117.534 111.156C117.534 111.422 117.693 111.707 117.686 111.859C117.63 113.145 117.923 113.019 117.812 113.485C117.73 113.837 117.278 113.856 116.53 114.004C115.978 114.111 114.608 113.5 114.385 113.4C113.345 112.926 112.952 110.911 112.952 110.089C112.952 108.352 114.382 108.148 115.437 108.337C115.946 108.424 116.422 108.647 116.815 108.981C117.286 109.428 117.586 110.026 117.663 110.67Z" fill="#CE914D"/>
<path d="M116.641 110.693C116.768 110.581 116.929 110.515 117.098 110.505C117.267 110.495 117.435 110.541 117.575 110.637" fill="black"/>
<g style="mix-blend-mode:multiply">
<g style="mix-blend-mode:multiply">
<path d="M117.093 111.3C117.171 111.3 117.234 111.237 117.234 111.159C117.234 111.082 117.171 111.019 117.093 111.019C117.015 111.019 116.952 111.082 116.952 111.159C116.952 111.237 117.015 111.3 117.093 111.3Z" fill="#004753"/>
</g>
</g>
<path d="M117.497 110.852C117.654 111.24 117.834 111.618 118.034 111.985C118.034 112.03 117.701 112.085 117.664 112.085C117.59 111.677 117.534 111.265 117.497 110.852Z" fill="#CE914D"/>
<g style="mix-blend-mode:multiply" opacity="0.67">
<path d="M115.219 114.089C115.274 114.119 114.893 115.689 116.33 116.119L116.678 113.989L115.219 114.089Z" fill="#CE914D"/>
</g>
<g style="mix-blend-mode:multiply">
<path d="M117.689 112.337C117.689 112.337 117.319 112.43 117.319 112.5C117.319 112.641 117.715 112.656 117.715 112.656L117.689 112.337Z" fill="#CE914D"/>
</g>
<path d="M118.775 109.255C118.761 109.095 118.684 108.948 118.561 108.844C118.438 108.741 118.279 108.69 118.119 108.703C117.989 108.722 117.871 108.789 117.749 108.807C117.685 108.823 117.618 108.817 117.559 108.789C117.499 108.761 117.451 108.714 117.423 108.655C117.393 108.548 117.464 108.441 117.486 108.329C117.5 108.195 117.466 108.059 117.388 107.948C117.31 107.837 117.195 107.758 117.063 107.726C116.804 107.648 116.523 107.855 116.252 107.844C115.452 107.803 114.726 107.607 113.785 108.233L114.797 109.048C114.734 109.022 114.697 109.118 114.708 109.185C114.775 109.569 114.984 109.914 115.293 110.152C115.444 110.294 115.631 110.393 115.834 110.437C117.175 110.67 116.174 109.278 117.378 109.696C117.726 109.892 117.938 110.067 118.245 109.974C118.402 109.932 118.54 109.838 118.636 109.708C118.732 109.577 118.781 109.418 118.775 109.255V109.255Z" fill="black"/>
<path d="M116.967 109.211C116.967 109.211 115.4 107.185 113.082 108.566C111.67 109.407 112.293 111.53 113.859 113.308C114.198 113.27 114.511 113.111 114.741 112.859C114.974 112.471 114.96 111.33 114.96 111.33L115.774 111.5L116.023 110.448C116.211 109.953 116.539 109.523 116.967 109.211V109.211Z" fill="black"/>
<g style="mix-blend-mode:multiply" opacity="0.67">
<path d="M114.863 111.041C114.863 111.041 114.811 111.626 115.093 111.733C115.213 111.774 115.343 111.774 115.463 111.733C115.463 111.733 115.363 112.596 114.893 112.408C114.422 112.219 114.863 111.041 114.863 111.041Z" fill="#CE914D"/>
</g>
<path d="M115.441 111.248C115.441 111.248 115.174 110.718 114.941 110.937C114.88 111.002 114.839 111.082 114.823 111.17C114.807 111.257 114.817 111.347 114.851 111.429C114.885 111.51 114.942 111.581 115.015 111.631C115.089 111.681 115.175 111.709 115.263 111.711C115.541 111.711 115.571 111.648 115.571 111.648L115.441 111.248Z" fill="#CE914D"/>
<g style="mix-blend-mode:multiply">
<path d="M115.215 111.256C115.216 111.234 115.21 111.213 115.198 111.195C115.186 111.177 115.169 111.163 115.148 111.156C115.128 111.149 115.105 111.149 115.085 111.155C115.064 111.162 115.046 111.175 115.034 111.193C115.033 111.2 115.033 111.207 115.034 111.215C115.03 111.238 115.03 111.262 115.034 111.285C115.034 111.311 115.04 111.337 115.051 111.36C115.062 111.384 115.077 111.405 115.097 111.422C115.116 111.439 115.141 111.449 115.167 111.449C115.193 111.449 115.218 111.439 115.237 111.422L115.215 111.256Z" fill="#CE914D"/>
</g>
<path d="M113.333 115.478L117.345 116.986" stroke="white" stroke-width="0.592519" stroke-linecap="round" stroke-linejoin="round"/>
<path d="M113.052 115.245C113.052 115.245 118.567 117.138 119.038 119.749C119.301 121.194 119.16 121.408 119.16 121.408C118.572 120.008 117.636 118.781 116.441 117.843C115.247 116.906 113.833 116.288 112.333 116.049" fill="#003333"/>
<path d="M128.076 122.357C127.957 122.357 127.84 122.328 127.735 122.271C127.569 122.179 127.445 122.026 127.389 121.845C127.332 121.664 127.347 121.468 127.431 121.297L130.224 115.982C130.253 115.875 130.305 115.775 130.378 115.691C130.451 115.606 130.541 115.539 130.643 115.495C130.745 115.45 130.856 115.43 130.967 115.434C131.078 115.438 131.187 115.467 131.285 115.519C131.384 115.571 131.469 115.644 131.535 115.733C131.601 115.823 131.646 115.926 131.667 116.035C131.688 116.145 131.684 116.257 131.655 116.365C131.627 116.472 131.574 116.572 131.502 116.656L128.713 121.968C128.652 122.085 128.561 122.183 128.449 122.251C128.336 122.32 128.207 122.356 128.076 122.357V122.357Z" fill="#004753"/>
<g style="mix-blend-mode:multiply">
<path d="M111.993 118.171C111.993 118.349 111.167 119.864 112.644 123.19C114.182 126.653 118.66 128.205 118.66 128.205L118.786 126.702L111.993 118.171Z" fill="#054752"/>
</g>
<path d="M119.193 123.764C119.401 124.605 120.56 124.531 120.56 124.531C122.827 123.631 125.375 122.434 126.831 121.842C127.101 121.731 127.157 121.597 127.313 121.516L127.105 120.405C119.086 120.968 119.016 123.042 119.193 123.764ZM128.942 119.801C129.161 119.676 129.392 119.576 129.631 119.501C129.694 119.501 129.909 119.205 130.128 119.101C130.201 118.953 130.266 118.801 130.32 118.645C130.342 118.598 130.376 118.559 130.42 118.531C130.463 118.504 130.513 118.489 130.565 118.49L130.435 119.438L129.909 119.956L129.324 120.586C129.233 120.575 129.147 120.541 129.075 120.485C129.003 120.43 128.947 120.356 128.913 120.271C128.871 120.199 128.852 120.115 128.857 120.032C128.863 119.948 128.892 119.868 128.942 119.801V119.801Z" fill="#CD904D"/>
<path d="M128.309 119.19C128.168 119.275 127.939 119.505 127.82 119.582C127.409 119.868 127.376 120.06 126.668 120.731C125.905 121.471 126.598 122.012 126.976 121.79C127.098 121.716 127.242 121.583 127.372 121.516C128.022 121.258 128.659 120.968 129.28 120.645C129.33 120.567 129.362 120.478 129.371 120.385C129.38 120.292 129.366 120.199 129.331 120.112C129.289 120.026 129.221 119.955 129.137 119.91C129.052 119.865 128.956 119.847 128.861 119.86C128.783 119.89 128.683 119.938 128.609 119.823C128.571 119.747 128.563 119.659 128.587 119.577C128.611 119.495 128.665 119.426 128.739 119.382C129.109 119.112 129.135 118.916 129.057 118.827C128.95 118.916 128.516 119.056 128.309 119.19V119.19Z" fill="#CD904D"/>
<path d="M128.746 119.953C128.938 119.789 129.145 119.644 129.365 119.519C129.424 119.493 129.579 119.175 129.772 119.027C129.815 118.867 129.849 118.705 129.872 118.541C129.883 118.491 129.909 118.445 129.946 118.409C129.982 118.373 130.029 118.348 130.079 118.338L130.142 119.293L129.728 119.908L129.279 120.649C129.193 120.668 129.103 120.662 129.021 120.63C128.939 120.598 128.867 120.543 128.816 120.471C128.727 120.314 128.702 120.128 128.746 119.953V119.953ZM112.344 119.234C112.344 119.234 112.515 120.579 113.522 121.16C114.715 121.853 119.43 124.924 120.56 124.353C122.238 123.494 121.434 123.394 120.93 122.734C120.427 122.075 119.282 120.308 117.571 119.127C116.015 118.078 113.174 116.278 112.344 119.234V119.234Z" fill="#CD904D"/>
<path d="M115.811 122.731L118.16 119.534C118.301 119.342 117.978 119.164 117.838 119.345L115.489 122.542C115.348 122.734 115.671 122.912 115.811 122.731Z" fill="white"/>
<path d="M92.3389 117.627C92.3389 117.627 92.1722 118.775 93.1649 120.771C94.1576 122.768 97.7764 125.398 98.032 125.487C99.7396 125.99 99.784 124.62 99.4247 123.912C99.1284 123.32 98.3135 122.001 96.1985 119.382C95.1947 118.149 93.502 116.489 92.3389 117.627Z" fill="#EACB92"/>
<path d="M89.9792 121.023L91.4312 126.801L95.7538 126.846L96.1909 120.949L89.9792 121.023Z" fill="#EACB92"/>
<path d="M91.2683 126.801L95.6798 126.738C95.6798 126.738 96.8577 128.505 95.4279 131.554C95.2724 131.88 94.5427 134.921 94.5427 134.921C94.5427 134.921 90.9424 135.965 89.3126 134.739C89.1533 134.621 88.7014 132.95 88.5495 132.409C87.9495 130.228 89.7496 129.246 91.2683 126.801V126.801ZM94.9946 122.068C94.9946 122.068 97.217 122.264 97.217 120.956C97.217 120.264 97.1615 120.734 95.3242 118.123L94.9946 122.068ZM98.0578 125.487C98.7172 126.227 99.5395 125.538 99.5395 125.538C101.117 124.209 103.707 121.234 104.421 119.982C104.534 119.802 104.63 119.612 104.71 119.416C104.747 119.297 104.737 119.169 104.682 119.058C104.627 118.947 104.531 118.861 104.414 118.819C104.199 118.749 103.577 119.256 103.577 119.256C96.2095 124.223 97.5948 124.953 98.0578 125.487ZM105.41 117.104C105.545 116.909 105.702 116.73 105.877 116.571C105.95 116.385 106.037 116.204 106.136 116.03C106.138 115.874 106.131 115.718 106.114 115.563C106.113 115.515 106.126 115.467 106.152 115.425C106.177 115.384 106.215 115.351 106.259 115.33L106.536 116.189L106.296 116.845L106.051 117.615C105.97 117.644 105.883 117.65 105.798 117.632C105.714 117.615 105.636 117.574 105.573 117.515C105.508 117.471 105.458 117.408 105.428 117.335C105.399 117.262 105.393 117.181 105.41 117.104V117.104Z" fill="#EACB92"/>
<path d="M104.621 116.838C104.536 116.963 104.425 117.26 104.362 117.367C104.129 117.782 103.955 118.778 103.836 118.993C103.789 119.049 103.753 119.114 103.732 119.184C103.711 119.254 103.704 119.327 103.712 119.4C103.721 119.472 103.744 119.542 103.781 119.606C103.817 119.669 103.866 119.724 103.925 119.767C104.295 120.079 104.536 119.59 104.536 119.59C104.602 119.454 104.679 119.324 104.766 119.201C105.214 118.717 105.638 118.212 106.036 117.686C106.048 117.598 106.039 117.509 106.009 117.426C105.98 117.343 105.93 117.268 105.866 117.208C105.795 117.152 105.708 117.12 105.618 117.115C105.528 117.11 105.438 117.134 105.362 117.182C105.307 117.241 105.244 117.323 105.132 117.256C105.068 117.202 105.02 117.131 104.995 117.051C104.969 116.971 104.967 116.885 104.988 116.804C105.229 116.363 105.21 116.338 105.11 116.226C104.937 116.422 104.774 116.626 104.621 116.838V116.838Z" fill="#EACB92"/>
<path d="M105.303 117.312C105.409 117.096 105.533 116.889 105.673 116.693C105.711 116.495 105.762 116.299 105.825 116.108C105.795 115.955 105.756 115.805 105.71 115.656C105.7 115.608 105.703 115.559 105.719 115.513C105.736 115.467 105.765 115.427 105.803 115.397L106.247 116.186L106.144 116.878L106.055 117.686C105.989 117.737 105.91 117.768 105.827 117.774C105.743 117.78 105.66 117.761 105.588 117.719C105.444 117.625 105.342 117.479 105.303 117.312V117.312ZM95.8872 118.927C95.4502 118.453 94.3686 115.834 94.3686 115.834L91.9387 115.723C91.9387 115.723 90.3978 117.238 90.1793 118.449C90.05 119.28 90.04 120.126 90.1496 120.96H95.6428C95.6428 120.96 95.9058 118.949 95.8872 118.927V118.927Z" fill="#EACB92"/>
<path d="M90.6536 117.775C90.6536 117.775 89.2682 118.867 90.0239 120.964C90.4647 122.19 92.15 127.139 92.3389 127.309C93.6538 128.509 94.2909 127.309 94.2798 126.501C94.2798 125.838 94.2391 122.901 93.539 121.068C92.9501 119.612 92.1982 117.26 90.6536 117.775Z" fill="#EACB92"/>
<path d="M93.9759 108.878C94.3728 108.946 94.7378 109.139 95.0186 109.427C95.2994 109.716 95.4816 110.086 95.539 110.485C95.7769 112.194 95.9265 113.913 95.9872 115.637L90.0607 115.589C90.0607 115.589 89.3199 108.126 93.9759 108.878V108.878Z" fill="#004753"/>
<path d="M92.324 113.993L91.8018 116.219H94.4205V113.471L92.324 113.993Z" fill="#EACB92"/>
<g style="mix-blend-mode:multiply" opacity="0.59">
<path d="M92.4758 114.082C92.5351 114.104 92.4758 115.319 94.4538 115.563L94.3686 113.534L92.4758 114.082Z" fill="#EACB92"/>
</g>
<path d="M95.202 112.004C95.202 113.337 94.4871 114.393 93.2907 114.393C92.0943 114.393 91.4016 113.3 91.4016 111.963C91.4016 110.626 92.1054 109.559 93.2907 109.559C94.476 109.559 95.202 110.67 95.202 112.004Z" fill="#EACB92"/>
<path d="M91.9314 111.748C92.0425 111.604 92.7092 111.559 92.8537 111.748H91.9314ZM93.8908 111.782C94.1094 111.574 94.7983 111.637 94.9094 111.826Z" fill="#004753"/>
<g style="mix-blend-mode:multiply">
<g style="mix-blend-mode:multiply">
<path d="M92.3165 112.248C92.3943 112.248 92.4573 112.185 92.4573 112.107C92.4573 112.03 92.3943 111.967 92.3165 111.967C92.2388 111.967 92.1758 112.03 92.1758 112.107C92.1758 112.185 92.2388 112.248 92.3165 112.248Z" fill="#004753"/>
</g>
</g>
<g style="mix-blend-mode:multiply">
<g style="mix-blend-mode:multiply">
<path d="M94.3204 112.248C94.3982 112.248 94.4612 112.185 94.4612 112.107C94.4612 112.03 94.3982 111.967 94.3204 111.967C94.2427 111.967 94.1797 112.03 94.1797 112.107C94.1797 112.185 94.2427 112.248 94.3204 112.248Z" fill="#004753"/>
</g>
</g>
<path d="M92.8093 112.971H93.8687C93.8421 113.097 93.774 113.21 93.6753 113.293C93.5765 113.375 93.4529 113.422 93.3242 113.426C93.1986 113.422 93.0784 113.375 92.9843 113.292C92.8902 113.208 92.8283 113.095 92.8093 112.971V112.971Z" fill="white"/>
<path d="M91.5682 111.826H91.2719C91.2044 111.826 91.1497 111.881 91.1497 111.948V112.615C91.1497 112.682 91.2044 112.737 91.2719 112.737H91.5682C91.6357 112.737 91.6905 112.682 91.6905 112.615V111.948C91.6905 111.881 91.6357 111.826 91.5682 111.826Z" fill="#EACB92"/>
<path d="M95.2464 111.826H94.9501C94.8826 111.826 94.8279 111.881 94.8279 111.948V112.615C94.8279 112.682 94.8826 112.737 94.9501 112.737H95.2464C95.314 112.737 95.3687 112.682 95.3687 112.615V111.948C95.3687 111.881 95.314 111.826 95.2464 111.826Z" fill="#EACB92"/>
<path d="M92.3054 109.726C92.3054 109.726 91.998 111.282 92.1276 111.326C92.2572 111.37 93.8166 111.37 93.8166 111.37C93.8166 111.37 94.1278 109.726 94.0834 109.889C94.0969 110.385 94.1414 110.88 94.2167 111.37L94.839 111.504C94.839 111.504 95.2353 108.929 94.0982 108.974C92.961 109.018 92.3943 109.107 92.3054 109.726V109.726Z" fill="#004753"/>
<g style="mix-blend-mode:multiply" opacity="0.59">
<path d="M93.4832 111.752V112.459L93.0647 112.526C93.0647 112.526 93.4351 112.897 93.6573 112.711C93.8796 112.526 93.6759 111.8 93.4832 111.752V111.752ZM91.4794 112.078C91.4794 112.096 91.4349 112.078 91.409 112.078C91.3946 112.078 91.3805 112.081 91.368 112.088C91.3556 112.096 91.3454 112.106 91.3386 112.119C91.3249 112.146 91.3149 112.174 91.309 112.204C91.3016 112.248 91.3016 112.293 91.309 112.337C91.3102 112.359 91.3166 112.381 91.3275 112.4C91.3384 112.419 91.3536 112.436 91.3719 112.448C91.4074 112.456 91.4439 112.456 91.4794 112.448V112.078ZM95.1093 112.078C95.1343 112.077 95.1591 112.083 95.1798 112.098C95.2005 112.112 95.2161 112.132 95.2242 112.156C95.2414 112.203 95.2478 112.254 95.2427 112.304C95.2432 112.347 95.2356 112.39 95.2204 112.43C95.2111 112.449 95.1964 112.466 95.1779 112.477C95.1595 112.488 95.1383 112.493 95.1167 112.493C95.1103 112.492 95.1042 112.49 95.099 112.486C95.0937 112.482 95.0897 112.477 95.0871 112.471" fill="#EACB92"/>
</g>
<path d="M91.5907 116.056L90.8499 116.926C90.8499 116.926 95.8837 119.953 95.6059 126.138L95.8096 126.242C95.8096 126.242 97.3653 119.108 91.6018 116.056" fill="#003333"/>
<path d="M169.435 130.357C169.435 122.497 137.21 120.486 137.21 120.486L66.9587 120.456L65.1993 120.401L64.2844 137.862L68.5848 141.784H166.927C168.468 141.784 169.639 140.532 169.368 139.169L169.072 137.654C169.072 137.654 169.354 130.883 169.442 130.783C170.142 130.087 169.435 130.454 169.435 130.357V130.357Z" fill="#2ED1FF"/>
<path d="M92.9684 124.386H88.7199C88.4744 124.386 88.2754 124.585 88.2754 124.831V125.194C88.2754 125.439 88.4744 125.638 88.7199 125.638H92.9684C93.2139 125.638 93.4129 125.439 93.4129 125.194V124.831C93.4129 124.585 93.2139 124.386 92.9684 124.386Z" fill="#054752"/>
<path d="M117.004 124.386H112.756C112.51 124.386 112.311 124.585 112.311 124.831V125.194C112.311 125.439 112.51 125.638 112.756 125.638H117.004C117.25 125.638 117.449 125.439 117.449 125.194V124.831C117.449 124.585 117.25 124.386 117.004 124.386Z" fill="#054752"/>
<path d="M162.605 127.387C162.605 127.387 163.034 131.895 164.59 131.895C167.89 131.895 169.946 131.991 169.946 131.991C169.946 131.991 170.176 128.72 167.264 127.779C165.753 127.34 164.169 127.206 162.605 127.387V127.387Z" fill="white"/>
<path opacity="0.45" d="M141.481 141.644H86.7384L85.416 136.462H143.384L141.481 141.644Z" fill="#054752"/>
<path d="M90.7534 142.525H141.48V144.07H90.7534V142.525ZM67.8327 142.525H72.7369V144.07H66.7363V143.636C66.7363 143.344 66.8513 143.064 67.0565 142.856C67.2617 142.648 67.5406 142.529 67.8327 142.525V142.525ZM158.789 142.525H169.124V144.07H158.789V142.525Z" fill="#054752"/>
<path d="M64.3029 123.82H71.3405C71.3405 123.82 71.4443 128.742 67.3772 129.468C63.9843 130.076 64.214 129.546 64.214 129.546L64.3029 123.82Z" fill="white"/>
<path d="M71.1072 121.327H64.5103C64.1032 121.327 63.7732 121.657 63.7732 122.064V122.657C63.7732 123.064 64.1032 123.394 64.5103 123.394H71.1072C71.5143 123.394 71.8443 123.064 71.8443 122.657V122.064C71.8443 121.657 71.5143 121.327 71.1072 121.327Z" fill="#054752"/>
<path d="M91.809 119.334C91.5016 119.308 89.7163 119.112 87.4605 118.79L87.0901 120.756H109.066L109.014 120.423C103.271 120.196 97.5347 119.833 91.809 119.334V119.334ZM111.459 120.534L111.496 120.764H117.86C115.811 120.701 113.667 120.623 111.459 120.534Z" fill="#2ED1FF"/>
<path d="M76.3521 115.76C76.0965 114.737 81.6378 108.163 86.7235 108.003C86.9161 108.003 87.4643 108.003 88.294 107.985L88.3199 107.844H89.4311L89.4089 107.974C93.7167 107.944 102.084 107.907 107.103 107.896V107.844H109.514V107.892H109.74C123.608 107.892 134.746 119.301 134.746 119.301C134.746 119.301 133.906 120.234 133.457 120.782H139.888C139.888 120.782 138.932 120.149 134.765 116.245C131.542 113.222 122.171 106.292 110.689 106.292C102.54 106.292 78.3301 106.062 78.0301 106.062C74.652 106.062 73.926 107.422 74.4705 109.607C75.1076 112.152 65.6252 119.679 65.177 120.764H85.9975L86.3679 118.638C82.0379 117.978 76.6447 116.93 76.3521 115.76V115.76Z" fill="#2ED1FF"/>
<path d="M85.7715 122.027H86.879L87.1049 120.76L86.0011 120.756L85.7715 122.027ZM89.4274 107.844H88.3162L88.2902 107.985H89.4015L89.4274 107.844ZM86.3826 118.63L86.0122 120.756H87.1235L87.4939 118.79L86.3826 118.63Z" fill="#2ED1FF"/>
<path d="M88.2978 107.985L86.3828 118.63L87.4607 118.79L89.4053 107.974L88.2978 107.985ZM109.263 121.927H111.674L111.496 120.764H109.085L109.263 121.927ZM109.515 107.844H107.103V107.896H109.515V107.844ZM109.033 120.43L109.085 120.764H111.496L111.459 120.534L109.033 120.43Z" fill="#2ED1FF"/>
<path d="M107.099 107.896L109.033 120.431L111.459 120.534L109.514 107.892L107.099 107.896Z" fill="#2ED1FF"/>
<path d="M166.357 133.595C165.335 133.595 163.453 137.165 163.453 138.862C163.453 140.558 165.335 141.947 166.357 141.947H167.183C167.496 141.948 167.806 141.887 168.096 141.767C168.385 141.648 168.648 141.472 168.869 141.251C169.091 141.03 169.267 140.767 169.387 140.478C169.507 140.189 169.568 139.879 169.568 139.566V136.543C169.568 136.117 169.228 133.58 168.805 133.58L166.357 133.595ZM63.814 130.75C63.814 130.75 69.8813 129.561 72.7334 132.895C75.5855 136.228 76.7152 141.736 76.7152 141.736L68.4737 141.773C66.2217 141.795 63.7881 141.799 63.7881 137.202L63.814 130.75Z" fill="#054752"/>
<path opacity="0.45" d="M169.379 133.302H163.557C163.419 133.302 163.287 133.247 163.19 133.15C163.093 133.053 163.038 132.921 163.038 132.784C163.039 132.647 163.094 132.516 163.191 132.419C163.288 132.323 163.42 132.269 163.557 132.269H169.379V133.302ZM132.213 118.027V125.372C132.877 125.369 133.512 125.104 133.981 124.634C134.451 124.164 134.715 123.528 134.717 122.864V120.531C134.715 119.867 134.45 119.231 133.981 118.762C133.512 118.293 132.876 118.029 132.213 118.027V118.027Z" fill="#054752"/>
<path opacity="0.45" d="M134.435 127.839H113.267C112.418 127.839 111.729 128.527 111.729 129.376V130.624C111.729 131.473 112.418 132.161 113.267 132.161H134.435C135.284 132.161 135.973 131.473 135.973 130.624V129.376C135.973 128.527 135.284 127.839 134.435 127.839Z" fill="white"/>
<path opacity="0.45" d="M105.673 127.839H91.9017C91.0527 127.839 90.3645 128.527 90.3645 129.376V130.624C90.3645 131.473 91.0527 132.161 91.9017 132.161H105.673C106.522 132.161 107.211 131.473 107.211 130.624V129.376C107.211 128.527 106.522 127.839 105.673 127.839Z" fill="white"/>
<path opacity="0.45" d="M64.7178 125.164C64.9376 125.154 65.1573 125.188 65.3635 125.265C65.5697 125.342 65.7581 125.46 65.9174 125.612C66.0767 125.763 66.2035 125.946 66.2901 126.148C66.3768 126.351 66.4214 126.568 66.4214 126.788C66.4214 127.009 66.3768 127.226 66.2901 127.429C66.2035 127.631 66.0767 127.814 65.9174 127.965C65.7581 128.117 65.5697 128.235 65.3635 128.312C65.1573 128.389 64.9376 128.423 64.7178 128.413" fill="#054752"/>
<path d="M141.295 141.877C141.343 139.496 142.323 137.228 144.024 135.561C145.725 133.894 148.012 132.96 150.394 132.96C152.776 132.96 155.063 133.894 156.764 135.561C158.465 137.228 159.445 139.496 159.493 141.877" fill="white"/>
<path d="M157.901 141.992C157.899 143.982 157.107 145.891 155.699 147.299C154.292 148.706 152.383 149.498 150.392 149.5C148.907 149.5 147.456 149.06 146.221 148.235C144.986 147.41 144.024 146.237 143.456 144.865C142.888 143.493 142.739 141.983 143.029 140.527C143.318 139.071 144.033 137.733 145.083 136.683C146.133 135.633 147.471 134.918 148.928 134.628C150.384 134.338 151.894 134.487 153.266 135.055C154.638 135.623 155.81 136.586 156.635 137.82C157.46 139.055 157.901 140.507 157.901 141.992V141.992Z" fill="#054752"/>
<g style="mix-blend-mode:multiply" opacity="0.49">
<g style="mix-blend-mode:multiply" opacity="0.49">
<path d="M156.686 146.081C156.126 146.939 155.396 147.672 154.542 148.237C153.688 148.802 152.727 149.186 151.719 149.366C150.711 149.546 149.676 149.517 148.68 149.282C147.683 149.047 146.745 148.61 145.923 147.999C145.101 147.388 144.413 146.615 143.902 145.728C143.39 144.841 143.065 143.858 142.947 142.841C142.83 141.824 142.921 140.793 143.217 139.812C143.513 138.832 144.006 137.922 144.666 137.139L148.477 139.973L152.878 143.266L156.686 146.081Z" fill="#004553"/>
</g>
</g>
<path d="M153.182 141.988C153.182 142.54 153.019 143.08 152.713 143.539C152.407 143.998 151.972 144.356 151.462 144.568C150.953 144.779 150.392 144.835 149.851 144.728C149.309 144.621 148.812 144.355 148.421 143.965C148.031 143.575 147.765 143.078 147.657 142.537C147.549 141.996 147.604 141.435 147.815 140.925C148.026 140.415 148.384 139.98 148.842 139.673C149.301 139.366 149.841 139.203 150.392 139.203C151.131 139.203 151.84 139.496 152.363 140.018C152.886 140.541 153.181 141.249 153.182 141.988ZM72.5518 141.877C72.5518 139.463 73.5106 137.148 75.2173 135.442C76.9241 133.735 79.2389 132.776 81.6526 132.776C84.0663 132.776 86.3811 133.735 88.0879 135.442C89.7946 137.148 90.7534 139.463 90.7534 141.877" fill="white"/>
<path d="M89.1421 141.992C89.1414 143.476 88.7007 144.926 87.8759 146.16C87.051 147.393 85.8789 148.354 84.5078 148.922C83.1367 149.489 81.6281 149.638 80.1728 149.348C78.7174 149.058 77.3806 148.344 76.3313 147.294C75.282 146.245 74.5674 144.908 74.2777 143.453C73.988 141.998 74.1363 140.489 74.7038 139.118C75.2714 137.747 76.2327 136.575 77.4662 135.75C78.6997 134.925 80.1501 134.484 81.634 134.484C82.6222 134.476 83.6021 134.665 84.5166 135.039C85.4311 135.414 86.2619 135.966 86.9606 136.665C87.6594 137.364 88.2122 138.195 88.5867 139.109C88.9612 140.024 89.15 141.004 89.1421 141.992V141.992Z" fill="#054752"/>
<g style="mix-blend-mode:multiply" opacity="0.49">
<g style="mix-blend-mode:multiply" opacity="0.49">
<path d="M87.9459 146.081C87.3882 146.944 86.6593 147.684 85.8043 148.253C84.9493 148.823 83.9865 149.212 82.9753 149.395C81.9641 149.577 80.9262 149.551 79.9258 149.316C78.9254 149.082 77.9837 148.644 77.1592 148.031C76.3347 147.418 75.6448 146.642 75.1323 145.751C74.6197 144.861 74.2955 143.874 74.1795 142.853C74.0636 141.832 74.1585 140.798 74.4583 139.816C74.7581 138.833 75.2565 137.922 75.9225 137.139L79.7377 139.973L84.1381 143.266L87.9459 146.081Z" fill="#004553"/>
</g>
</g>
<path d="M84.4382 141.988C84.4389 142.54 84.2759 143.079 83.9699 143.539C83.6639 143.998 83.2285 144.356 82.7189 144.568C82.2094 144.779 81.6484 144.835 81.1072 144.728C80.5659 144.621 80.0685 144.355 79.6781 143.965C79.2877 143.575 79.0216 143.078 78.9137 142.537C78.8058 141.996 78.8608 141.435 79.0718 140.925C79.2828 140.415 79.6403 139.98 80.0991 139.673C80.5578 139.366 81.0972 139.203 81.649 139.203C82.0151 139.202 82.3777 139.274 82.7161 139.414C83.0545 139.553 83.362 139.758 83.621 140.017C83.8801 140.276 84.0856 140.583 84.2258 140.921C84.366 141.259 84.4382 141.622 84.4382 141.988V141.988Z" fill="white"/>
<path d="M339.895 102.397H361.792M55.7556 109.224H77.6529H55.7556ZM51.4497 113.845H73.347H51.4497ZM333.068 90.3721H354.966H333.068ZM333.173 114.947H355.071H333.173Z" stroke="white" stroke-miterlimit="10" stroke-linecap="round" stroke-linejoin="round"/>
<path d="M-138.904 257.569C-138.904 204.112 -95.5821 160.79 -42.1255 160.79C11.3311 160.79 54.653 204.112 54.653 257.569" stroke="#054752" stroke-width="5" stroke-miterlimit="10"/>
<path d="M398.34 150.445V132.539M52.6576 257.569C52.6576 204.112 95.9795 160.79 149.436 160.79C202.893 160.79 246.215 204.112 246.215 257.569H52.6576ZM248.263 257.569C248.263 204.112 291.585 160.79 345.041 160.79C398.498 160.79 441.82 204.112 441.82 257.569H248.263ZM-229.801 132.591H631.018H-229.801ZM18.0526 150.445V132.539V150.445ZM52.6576 150.445V132.539V150.445ZM87.2101 150.445V132.539V150.445ZM121.763 150.445V132.539V150.445ZM156.368 150.445V132.539V150.445ZM190.92 150.445V132.539V150.445ZM225.473 150.445V132.539V150.445ZM260.025 150.445V132.539V150.445ZM294.63 150.445V132.539V150.445ZM329.183 150.445V132.539V150.445ZM363.735 150.445V132.539V150.445Z" stroke="#054752" stroke-width="5" stroke-miterlimit="10"/>
<path d="M-229.959 144.144H631.018V159.74H-229.959V144.144Z" fill="#054752"/>
<path d="M44.991 156.064V247.854L34.1211 255.468V272.534H75.29V254.628L62.9499 246.384V156.064H44.991ZM238.548 156.064V247.854L227.678 255.468V272.534H268.9V254.628L256.507 246.384V156.064H238.548Z" fill="#054752"/>
<g filter="url(#filter0_d_504_593)">
<path fill-rule="evenodd" clip-rule="evenodd" d="M96 191C96 182.716 102.716 176 111 176H300C308.284 176 315 182.716 315 191V230C315 238.284 308.284 245 300 245H111C102.716 245 96 238.284 96 230V191Z" fill="white"/>
</g>
</g>
<defs>
<filter id="filter0_d_504_593" x="88" y="170" width="235" height="85" filterUnits="userSpaceOnUse" color-interpolation-filters="sRGB">
<feFlood flood-opacity="0" result="BackgroundImageFix"/>
<feColorMatrix in="SourceAlpha" type="matrix" values="0 0 0 0 0 0 0 0 0 0 0 0 0 0 0 0 0 0 127 0" result="hardAlpha"/>
<feOffset dy="2"/>
<feGaussianBlur stdDeviation="4"/>
<feColorMatrix type="matrix" values="0 0 0 0 0.0627451 0 0 0 0 0.411765 0 0 0 0 0.890196 0 0 0 0.3 0"/>
<feBlend mode="normal" in2="BackgroundImageFix" result="effect1_dropShadow_504_593"/>
<feBlend mode="normal" in="SourceGraphic" in2="effect1_dropShadow_504_593" result="shape"/>
</filter>
<linearGradient id="paint0_linear_504_593" x1="205.733" y1="201.723" x2="205.056" y2="-2.45228" gradientUnits="userSpaceOnUse">
<stop stop-color="white"/>
<stop offset="0.09" stop-color="#F7FDFF"/>
<stop offset="0.24" stop-color="#E0F8FF"/>
<stop offset="0.42" stop-color="#BCF0FF"/>
<stop offset="0.63" stop-color="#89E5FF"/>
<stop offset="0.86" stop-color="#48D7FF"/>
<stop offset="0.94" stop-color="#2ED1FF"/>
</linearGradient>
<clipPath id="clip0_504_593">
<rect width="420.091" height="230" fill="white" transform="translate(-5)"/>
</clipPath>
</defs>
</svg>
