<svg width="75" height="47" viewBox="0 0 75 47" fill="none" xmlns="http://www.w3.org/2000/svg">
<path d="M36.2199 17.7695H16.1963V23.3885H36.2199V17.7695Z" fill="white"/>
<path d="M11.3651 11.4889C11.8121 10.3862 12.376 9.46668 13.0638 8.73377C13.7515 7.99748 14.5012 7.42065 15.3196 7.0033C16.138 6.58596 16.9151 6.27719 17.6545 6.0736C18.3904 5.87341 19.0403 5.74447 19.6042 5.69697C20.1682 5.64608 20.5361 5.62232 20.7115 5.62232H25.6323H30.7216H36.4161V2.83322C36.4161 2.44301 36.3439 2.07656 36.196 1.73047C36.0516 1.38437 35.8453 1.08239 35.5839 0.821124C35.3226 0.56325 35.0131 0.359666 34.6624 0.217157C34.3116 0.0746476 33.9402 0 33.5448 0H20.7081C18.4454 0 16.3546 0.383417 14.4427 1.14686C12.5308 1.9103 10.8699 2.97573 9.47033 4.34653C8.06733 5.71394 6.97382 7.35279 6.18292 9.25291C5.39545 11.153 5 13.2364 5 15.4996V30.9991H10.6945V27.1955V23.3885V17.7695V15.4996C10.6945 13.9286 10.918 12.5917 11.3651 11.4889Z" fill="white"/>
<path d="M30.7217 5.6189V14.6682V17.7695V23.3884V26.4524V30.9991H36.4162V5.6189H30.7217Z" fill="white"/>
<path d="M70.5933 7.77014C69.9296 6.17879 69.0115 4.80799 67.8423 3.66452C66.6731 2.51766 65.2873 1.62189 63.6815 0.973812C62.0721 0.325735 60.3287 0 58.4443 0H43.0664C42.6572 0 42.2789 0.0712545 41.9282 0.217157C41.5774 0.363059 41.2748 0.56325 41.0203 0.821124C40.7659 1.079 40.563 1.38437 40.4186 1.73047C40.2741 2.07656 40.1985 2.44301 40.1985 2.83322V5.62232H45.893H48.4273H58.4443C59.555 5.62232 60.566 5.79876 61.4773 6.15164C62.3885 6.50452 63.176 7.0033 63.8328 7.6446C64.4896 8.28589 64.9985 9.05951 65.3561 9.96885C65.7137 10.8782 65.8926 11.8792 65.8926 12.9751V18.0342C65.8926 19.1437 65.7137 20.1481 65.3561 21.0506C64.9985 21.9498 64.4896 22.7234 63.8328 23.3647C63.176 24.006 62.392 24.5048 61.4773 24.8577C60.566 25.2105 59.5516 25.387 58.4443 25.387H51.0614H45.893H40.1985V28.1761C40.1985 28.5799 40.2707 28.9531 40.4186 29.2992C40.5664 29.6453 40.7659 29.9439 41.0203 30.195C41.2748 30.4461 41.5774 30.6462 41.9282 30.7888C42.2789 30.9313 42.6572 31.0059 43.0664 31.0059H58.4443C60.3287 31.0059 62.0721 30.6802 63.6815 30.0321C65.2873 29.384 66.6766 28.4849 67.8423 27.3414C69.0115 26.1945 69.9262 24.8305 70.5933 23.246C71.257 21.6614 71.5905 19.9241 71.5905 18.0376V12.9717C71.5905 11.0954 71.257 9.36488 70.5933 7.77014Z" fill="white"/>
<path d="M49.0569 10.3149H24.8965V15.9339H49.0569V10.3149Z" fill="white"/>
<path d="M1.41477 44H0.306818L3.51136 35.2727H4.60227L7.80682 44H6.69886L4.09091 36.6534H4.02273L1.41477 44ZM1.82386 40.5909H6.28977V41.5284H1.82386V40.5909ZM9.02983 44V37.4545H10.0014V38.4773H10.0866C10.223 38.1278 10.4432 37.8565 10.7472 37.6634C11.0511 37.4673 11.4162 37.3693 11.8423 37.3693C12.2741 37.3693 12.6335 37.4673 12.9205 37.6634C13.2102 37.8565 13.4361 38.1278 13.598 38.4773H13.6662C13.8338 38.1392 14.0852 37.8707 14.4205 37.6719C14.7557 37.4702 15.1577 37.3693 15.6264 37.3693C16.2116 37.3693 16.6903 37.5526 17.0625 37.919C17.4347 38.2827 17.6207 38.8494 17.6207 39.6193V44H16.6151V39.6193C16.6151 39.1364 16.483 38.7912 16.2188 38.5838C15.9545 38.3764 15.6435 38.2727 15.2855 38.2727C14.8253 38.2727 14.4688 38.4119 14.2159 38.6903C13.9631 38.9659 13.8366 39.3153 13.8366 39.7386V44H12.8139V39.517C12.8139 39.1449 12.6932 38.8452 12.4517 38.6179C12.2102 38.3878 11.8991 38.2727 11.5185 38.2727C11.2571 38.2727 11.0128 38.3423 10.7855 38.4815C10.5611 38.6207 10.3793 38.8139 10.2401 39.0611C10.1037 39.3054 10.0355 39.5881 10.0355 39.9091V44H9.02983ZM19.4595 44V37.4545H20.4652V44H19.4595ZM19.9709 36.3636C19.7749 36.3636 19.6058 36.2969 19.4638 36.1634C19.3246 36.0298 19.255 35.8693 19.255 35.6818C19.255 35.4943 19.3246 35.3338 19.4638 35.2003C19.6058 35.0668 19.7749 35 19.9709 35C20.1669 35 20.3345 35.0668 20.4737 35.2003C20.6158 35.3338 20.6868 35.4943 20.6868 35.6818C20.6868 35.8693 20.6158 36.0298 20.4737 36.1634C20.3345 36.2969 20.1669 36.3636 19.9709 36.3636ZM24.9663 44.1364C24.3526 44.1364 23.8242 43.9915 23.381 43.7017C22.9379 43.4119 22.5969 43.0128 22.3583 42.5043C22.1197 41.9957 22.0004 41.4148 22.0004 40.7614C22.0004 40.0966 22.1225 39.5099 22.3668 39.0014C22.614 38.4901 22.9577 38.0909 23.3981 37.804C23.8413 37.5142 24.3583 37.3693 24.9492 37.3693C25.4094 37.3693 25.8242 37.4545 26.1935 37.625C26.5629 37.7955 26.8654 38.0341 27.1012 38.3409C27.337 38.6477 27.4833 39.0057 27.5401 39.4148H26.5344C26.4577 39.1165 26.2873 38.8523 26.0231 38.6222C25.7617 38.3892 25.4094 38.2727 24.9663 38.2727C24.5742 38.2727 24.2305 38.375 23.935 38.5795C23.6424 38.7812 23.4137 39.0668 23.2489 39.4361C23.087 39.8026 23.006 40.233 23.006 40.7273C23.006 41.233 23.0856 41.6733 23.2447 42.0483C23.4066 42.4233 23.6339 42.7145 23.9265 42.9219C24.2219 43.1293 24.5685 43.233 24.9663 43.233C25.2276 43.233 25.4648 43.1875 25.6779 43.0966C25.891 43.0057 26.0714 42.875 26.2191 42.7045C26.3668 42.5341 26.4719 42.3295 26.5344 42.0909H27.5401C27.4833 42.4773 27.3427 42.8253 27.1183 43.1349C26.8967 43.4418 26.6026 43.6861 26.2362 43.8679C25.8725 44.0469 25.4492 44.1364 24.9663 44.1364ZM33.1353 41.3239V37.4545H34.141V44H33.1353V42.892H33.0671C32.9137 43.2244 32.6751 43.5071 32.3512 43.7401C32.0273 43.9702 31.6183 44.0852 31.1239 44.0852C30.7148 44.0852 30.3512 43.9957 30.033 43.8168C29.7148 43.6349 29.4648 43.3622 29.283 42.9986C29.1012 42.6321 29.0103 42.1705 29.0103 41.6136V37.4545H30.016V41.5455C30.016 42.0227 30.1495 42.4034 30.4165 42.6875C30.6864 42.9716 31.0302 43.1136 31.4478 43.1136C31.6978 43.1136 31.9521 43.0497 32.2106 42.9219C32.4719 42.794 32.6907 42.598 32.8668 42.3338C33.0458 42.0696 33.1353 41.733 33.1353 41.3239ZM40.6193 38.9205L39.7159 39.1761C39.6591 39.0256 39.5753 38.8793 39.4645 38.7372C39.3565 38.5923 39.2088 38.473 39.0213 38.3793C38.8338 38.2855 38.5938 38.2386 38.3011 38.2386C37.9006 38.2386 37.5668 38.331 37.2997 38.5156C37.0355 38.6974 36.9034 38.929 36.9034 39.2102C36.9034 39.4602 36.9943 39.6577 37.1761 39.8026C37.358 39.9474 37.642 40.0682 38.0284 40.1648L39 40.4034C39.5852 40.5455 40.0213 40.7628 40.3082 41.0554C40.5952 41.3452 40.7386 41.7187 40.7386 42.1761C40.7386 42.5511 40.6307 42.8864 40.4148 43.1818C40.2017 43.4773 39.9034 43.7102 39.5199 43.8807C39.1364 44.0511 38.6903 44.1364 38.1818 44.1364C37.5142 44.1364 36.9616 43.9915 36.5241 43.7017C36.0866 43.4119 35.8097 42.9886 35.6932 42.4318L36.6477 42.1932C36.7386 42.5455 36.9105 42.8097 37.1634 42.9858C37.419 43.1619 37.7528 43.25 38.1648 43.25C38.6335 43.25 39.0057 43.1506 39.2812 42.9517C39.5597 42.75 39.6989 42.5085 39.6989 42.2273C39.6989 42 39.6193 41.8097 39.4602 41.6562C39.3011 41.5 39.0568 41.3835 38.7273 41.3068L37.6364 41.0511C37.0369 40.9091 36.5966 40.6889 36.3153 40.3906C36.0369 40.0895 35.8977 39.7131 35.8977 39.2614C35.8977 38.892 36.0014 38.5653 36.2088 38.2812C36.419 37.9972 36.7045 37.7741 37.0653 37.6122C37.429 37.4503 37.8409 37.3693 38.3011 37.3693C38.9489 37.3693 39.4574 37.5114 39.8267 37.7955C40.1989 38.0795 40.4631 38.4545 40.6193 38.9205ZM48.457 44H45.7638V35.2727H48.5763C49.4229 35.2727 50.1474 35.4474 50.7496 35.7969C51.3519 36.1435 51.8136 36.642 52.1346 37.2926C52.4556 37.9403 52.6161 38.7159 52.6161 39.6193C52.6161 40.5284 52.4542 41.3111 52.1303 41.9673C51.8065 42.6207 51.3349 43.1236 50.7156 43.4759C50.0962 43.8253 49.3434 44 48.457 44ZM46.8207 43.0625H48.3888C49.1104 43.0625 49.7085 42.9233 50.1829 42.6449C50.6573 42.3665 51.011 41.9702 51.244 41.456C51.4769 40.9418 51.5934 40.3295 51.5934 39.6193C51.5934 38.9148 51.4783 38.3082 51.2482 37.7997C51.0181 37.2884 50.6744 36.8963 50.217 36.6236C49.7596 36.348 49.19 36.2102 48.5082 36.2102H46.8207V43.0625ZM54.2525 44V37.4545H55.2241V38.4432H55.2923C55.4116 38.1193 55.6275 37.8565 55.94 37.6548C56.2525 37.4531 56.6048 37.3523 56.9968 37.3523C57.0707 37.3523 57.163 37.3537 57.2738 37.3565C57.3846 37.3594 57.4684 37.3636 57.5252 37.3693V38.392C57.4911 38.3835 57.413 38.3707 57.2908 38.3537C57.1715 38.3338 57.0451 38.3239 56.9116 38.3239C56.5934 38.3239 56.3093 38.3906 56.0593 38.5241C55.8121 38.6548 55.6161 38.8366 55.4712 39.0696C55.3292 39.2997 55.2582 39.5625 55.2582 39.858V44H54.2525ZM58.7173 44V37.4545H59.723V44H58.7173ZM59.2287 36.3636C59.0327 36.3636 58.8636 36.2969 58.7216 36.1634C58.5824 36.0298 58.5128 35.8693 58.5128 35.6818C58.5128 35.4943 58.5824 35.3338 58.7216 35.2003C58.8636 35.0668 59.0327 35 59.2287 35C59.4247 35 59.5923 35.0668 59.7315 35.2003C59.8736 35.3338 59.9446 35.4943 59.9446 35.6818C59.9446 35.8693 59.8736 36.0298 59.7315 36.1634C59.5923 36.2969 59.4247 36.3636 59.2287 36.3636ZM66.9173 37.4545L64.4968 44H63.4741L61.0536 37.4545H62.1445L63.9513 42.6705H64.0195L65.8263 37.4545H66.9173ZM70.7546 44.1364C70.1239 44.1364 69.5799 43.9972 69.1225 43.7188C68.668 43.4375 68.3171 43.0455 68.07 42.5426C67.8256 42.0369 67.7035 41.4489 67.7035 40.7784C67.7035 40.108 67.8256 39.517 68.07 39.0057C68.3171 38.4915 68.6609 38.0909 69.1012 37.804C69.5444 37.5142 70.0614 37.3693 70.6523 37.3693C70.9933 37.3693 71.3299 37.4261 71.6623 37.5398C71.9947 37.6534 72.2972 37.8381 72.57 38.0938C72.8427 38.3466 73.06 38.6818 73.2219 39.0994C73.3839 39.517 73.4648 40.0312 73.4648 40.642V41.0682H68.4194V40.1989H72.4421C72.4421 39.8295 72.3683 39.5 72.2205 39.2102C72.0756 38.9205 71.8683 38.6918 71.5984 38.5241C71.3313 38.3565 71.016 38.2727 70.6523 38.2727C70.2518 38.2727 69.9052 38.3722 69.6126 38.571C69.3228 38.767 69.0998 39.0227 68.9435 39.3381C68.7873 39.6534 68.7092 39.9915 68.7092 40.3523V40.9318C68.7092 41.4261 68.7944 41.8452 68.9648 42.1889C69.1381 42.5298 69.3782 42.7898 69.685 42.9688C69.9918 43.1449 70.3484 43.233 70.7546 43.233C71.0188 43.233 71.2575 43.196 71.4705 43.1222C71.6864 43.0455 71.8725 42.9318 72.0288 42.7812C72.185 42.6278 72.3058 42.4375 72.391 42.2102L73.3626 42.483C73.2603 42.8125 73.0884 43.1023 72.8469 43.3523C72.6055 43.5994 72.3072 43.7926 71.9521 43.9318C71.5969 44.0682 71.1978 44.1364 70.7546 44.1364Z" fill="white"/>
</svg>
