<svg width="48" height="45" viewBox="0 0 48 45" fill="none" xmlns="http://www.w3.org/2000/svg">
<path fill-rule="evenodd" clip-rule="evenodd" d="M23.1121 38.0255C23.3978 38.205 23.7032 38.2845 24 38.2806C24.2968 38.2845 24.6022 38.205 24.8879 38.0255L27.4225 36.433C32.3933 33.3098 38.4725 32.7997 43.8548 35.0542C45.8402 35.8859 48 34.3546 48 32.1153V4.85757C48 3.50637 47.2144 2.29129 46.0164 1.78946C39.0841 -1.11433 31.2541 -0.457322 24.8518 3.56537L24 4.10057L23.1482 3.56537C16.7459 -0.457322 8.91588 -1.11433 1.98359 1.78946C0.78557 2.29129 0 3.50637 0 4.85757V32.1153C0 34.3546 2.15976 35.8859 4.14523 35.0542C9.52748 32.7997 15.6067 33.3098 20.5775 36.433L23.1121 38.0255ZM3.34884 4.9951V31.6166C9.5906 29.1664 16.5696 29.825 22.3005 33.4259L22.3256 33.4416V7.13821L21.4252 6.57252C15.9577 3.13718 9.27926 2.55658 3.34884 4.9951ZM25.6995 33.4259L25.6744 33.4416V7.13821L26.5748 6.57252C32.0423 3.13718 38.7207 2.55658 44.6512 4.9951V31.6166C38.4094 29.1664 31.4304 29.825 25.6995 33.4259Z" fill="#FFC032"/>
<path d="M17.9166 38.9753C13.3983 36.2151 7.81104 36.2151 3.29266 38.9753L3.06329 39.1154C2.2645 39.6033 1.99469 40.677 2.46065 41.5135C2.92661 42.35 3.95188 42.6325 4.75067 42.1446L4.98005 42.0044C8.45572 39.8813 12.7536 39.8813 16.2293 42.0044L18.6566 43.4872C21.9585 45.5043 26.0415 45.5043 29.3434 43.4872L31.7707 42.0044C35.2464 39.8813 39.5443 39.8813 43.02 42.0044L43.2493 42.1446C44.0481 42.6325 45.0734 42.35 45.5394 41.5135C46.0053 40.677 45.7355 39.6033 44.9367 39.1154L44.7073 38.9753C40.189 36.2151 34.6017 36.2151 30.0834 38.9753L27.656 40.4581C25.3968 41.8381 22.6032 41.8381 20.344 40.4581L17.9166 38.9753Z" fill="#FFC032"/>
</svg>
