<svg width="45" height="45" viewBox="0 0 45 45" fill="none" xmlns="http://www.w3.org/2000/svg">
<path fill-rule="evenodd" clip-rule="evenodd" d="M44.2723 7.41681C44.7226 8.09884 44.6475 9.02569 44.0471 9.62611L22.5109 31.1623C22.2902 31.383 22.0146 31.541 21.7125 31.6199L12.7432 33.9627C12.4506 34.0391 12.1491 34.0376 11.8658 33.9655C11.5646 33.8888 11.284 33.7324 11.0567 33.5051C10.6156 33.064 10.4414 32.4221 10.5991 31.8186L12.9419 22.8492C13.0109 22.5849 13.1405 22.3239 13.3197 22.1191L34.9357 0.514648C35.1249 0.325433 35.3528 0.183819 35.6008 0.0975349C35.7848 0.0335594 35.9797 0 36.1781 0C36.6441 0 37.0911 0.185124 37.4206 0.514648L44.0471 7.14117C44.1329 7.22694 44.2079 7.31938 44.2723 7.41681ZM40.3197 8.38364L36.1781 4.24206L16.2215 24.1987L14.7573 29.8045L20.3631 28.3402L40.3197 8.38364Z" fill="white"/>
<path d="M40.0235 34.9323C40.6641 29.4557 40.8679 23.9408 40.635 18.4399C40.6238 18.1765 40.7229 17.9202 40.9093 17.7338L43.213 15.4301C43.4963 15.1468 43.9803 15.3266 44.0068 15.7263C44.44 22.262 44.2758 28.8274 43.514 35.3405C42.9598 40.079 39.1543 43.7924 34.4404 44.3192C26.3188 45.2269 17.9236 45.2269 9.80203 44.3192C5.08813 43.7924 1.2826 40.079 0.728393 35.3405C-0.242798 27.0369 -0.242798 18.6483 0.728393 10.3446C1.2826 5.60615 5.08813 1.89274 9.80203 1.3659C15.9631 0.677308 22.2816 0.511084 28.5186 0.867224C28.9206 0.890177 29.1038 1.37659 28.8191 1.66128L26.4937 3.98667C26.3094 4.17104 26.0566 4.27005 25.796 4.26126C20.5798 4.08534 15.3283 4.28438 10.1924 4.85839C7.07616 5.20668 4.57991 7.66574 4.21884 10.7528C3.27937 18.7853 3.27937 26.8998 4.21884 34.9323C4.57991 38.0194 7.07616 40.4784 10.1924 40.8267C18.0545 41.7054 26.1878 41.7054 34.05 40.8267C37.1662 40.4784 39.6625 38.0194 40.0235 34.9323Z" fill="white"/>
</svg>
