<svg width="48" height="45" viewBox="0 0 48 45" fill="none" xmlns="http://www.w3.org/2000/svg">
<path d="M25.4545 40.6452C24.2496 40.6452 23.2727 41.62 23.2727 42.8226C23.2727 44.0251 24.2496 45 25.4545 45H42.9091C45.7207 45 48 42.7253 48 39.9194V5.08065C48 2.27468 45.7207 0 42.9091 0H25.4545C24.2496 0 23.2727 0.974868 23.2727 2.17742C23.2727 3.37998 24.2496 4.35484 25.4545 4.35484L42.9091 4.35484C43.3107 4.35484 43.6364 4.6798 43.6364 5.08065V39.9194C43.6364 40.3202 43.3108 40.6452 42.9091 40.6452H25.4545Z" fill="white"/>
<path fill-rule="evenodd" clip-rule="evenodd" d="M0 25.7377C0 27.742 1.62805 29.3668 3.63636 29.3668H17.0548C17.0738 29.5799 17.0937 29.793 17.1144 30.0061L17.2716 31.6199C17.5114 34.0822 20.1313 35.5568 22.3667 34.4876C27.1208 32.2138 31.7132 28.8016 35.3598 25.002C36.7102 23.5949 36.7102 21.3758 35.3598 19.9687L35.0712 19.668C31.4247 15.8684 27.1208 12.7569 22.3667 10.4831C20.1313 9.41394 17.5114 10.8885 17.2716 13.3508L17.1144 14.9646C17.0937 15.1777 17.0738 15.3908 17.0548 15.604L3.63636 15.604C1.62806 15.604 0 17.2288 0 19.233V25.7377ZM21.2457 26.9439C21.1221 25.8495 20.1929 25.0119 19.0777 25.0119H4.36364L4.36364 19.9588H19.0777C20.23 19.9588 21.1836 19.0646 21.2553 17.9169C21.3081 17.0724 21.3755 16.2286 21.4576 15.3859L21.5032 14.9175C25.2991 16.8697 28.7539 19.4252 31.7315 22.4854C30.4883 23.7631 29.1619 24.9528 27.7621 26.0473C25.8095 27.5743 23.7142 28.9161 21.5032 30.0532L21.4576 29.5848C21.3755 28.7421 21.3081 27.8983 21.2553 27.0538C21.253 27.0169 21.2498 26.9803 21.2457 26.9439Z" fill="white"/>
</svg>
