<svg width="40" height="40" viewBox="0 0 40 40" fill="none" xmlns="http://www.w3.org/2000/svg">
<circle cx="20" cy="20" r="20" fill="#476DF5"/>
<path d="M31.4802 16.1861H29.7201C29.586 16.1861 29.4571 16.2379 29.3604 16.3307L28.9846 16.6906C28.3513 15.2251 27.4427 13.7759 26.2154 12.2756C25.552 11.4649 24.5709 11 23.5235 11H16.4764C15.4289 11 14.4478 11.4649 13.7848 12.2756C12.5188 13.8232 11.6282 15.2375 11.0099 16.6854L10.6397 16.3307C10.5429 16.2379 10.414 16.1861 10.2799 16.1861H8.51986C8.23272 16.1861 8 16.4189 8 16.706V17.9094C8 18.1838 8.21333 18.4109 8.48718 18.4282L10.2963 18.5422C10.023 19.341 9.80955 20.5313 9.80955 22.2099C9.80955 23.6665 10.1005 24.6238 10.6068 25.2435V28.0476C10.6068 28.2881 10.8017 28.4829 11.0422 28.4829H13.0447C13.2853 28.4829 13.4803 28.2881 13.4803 28.0476V26.3063H26.5198V28.0476C26.5198 28.2881 26.7148 28.4829 26.9552 28.4829H28.9578C29.1982 28.4829 29.3932 28.2881 29.3932 28.0476V25.2435C29.8994 24.6238 30.1905 23.6665 30.1905 22.2099C30.1905 20.5313 29.9771 19.341 29.7037 18.5422L31.5129 18.4282C31.7867 18.4109 32 18.1838 32 17.9094V16.706C32 16.4189 31.7674 16.1861 31.4802 16.1861ZM15.2706 13.4911C15.5677 13.1279 16.0072 12.9195 16.4764 12.9195H23.5235C23.9927 12.9195 24.4324 13.1279 24.7295 13.4911C25.5881 14.5406 26.2661 15.5451 26.7902 16.5456L13.1978 16.5482C13.7104 15.5698 14.3923 14.5646 15.2706 13.4911ZM13.7893 24.1769C12.7926 24.1769 11.9846 23.8513 11.9846 23.0616C11.9846 22.2718 12.2778 21.6315 13.2745 21.6315C14.2712 21.6315 15.5939 22.2718 15.5939 23.0616C15.5939 23.8513 14.7859 24.1769 13.7893 24.1769ZM21.8918 24.0123H18.1083C17.5379 24.0123 17.0739 23.5483 17.0739 22.978C17.0739 22.818 17.2037 22.6883 17.3637 22.6883H22.6365C22.7965 22.6883 22.9261 22.818 22.9261 22.978C22.9261 23.5484 22.4621 24.0123 21.8918 24.0123ZM26.2107 24.1769C25.214 24.1769 24.406 23.8513 24.406 23.0616C24.406 22.2718 25.7289 21.6315 26.7255 21.6315C27.7222 21.6315 28.0154 22.2718 28.0154 23.0616C28.0154 23.8513 27.2075 24.1769 26.2107 24.1769Z" fill="white"/>
</svg>
