<svg width="32" height="22" viewBox="0 0 32 22" fill="none" xmlns="http://www.w3.org/2000/svg">
<path d="M31.5636 17.2891V16.8951H31.4642L31.3492 17.1657L31.2348 16.8951H31.1348V17.2891H31.2054V16.992L31.3129 17.2484H31.3861L31.4936 16.9913V17.2891H31.5636ZM30.9329 17.2891V16.9622H31.0604V16.8957H30.7354V16.9622H30.8629V17.2891H30.9329Z" fill="#F79410"/>
<path d="M20.288 18.981H11.7041V3.04001H20.288V18.981Z" fill="#FF5F00"/>
<path d="M12.2532 11.0076C12.2532 7.77384 13.7184 4.89335 16.0001 3.03705C14.3316 1.67963 12.2258 0.869431 9.93724 0.869431C4.5193 0.869431 0.127441 5.40835 0.127441 11.0076C0.127441 16.6068 4.5193 21.1457 9.93724 21.1457C12.2258 21.1457 14.3316 20.3355 16.0001 18.978C13.7184 17.1217 12.2532 14.2413 12.2532 11.0076Z" fill="#EB001B"/>
<path d="M31.8694 11.0048C31.8694 16.604 27.4776 21.1429 22.0596 21.1429C19.7711 21.1429 17.6653 20.3327 15.9961 18.9753C18.2784 17.119 19.7436 14.2385 19.7436 11.0048C19.7436 7.77106 18.2784 4.89057 15.9961 3.03427C17.6653 1.67685 19.7711 0.866648 22.0596 0.866648C27.4776 0.866648 31.8694 5.40557 31.8694 11.0048Z" fill="#F79E1B"/>
</svg>
