<svg width="22" height="22" viewBox="0 0 22 22" fill="none" xmlns="http://www.w3.org/2000/svg">
<path fill-rule="evenodd" clip-rule="evenodd" d="M7 10.75C7 8.67893 8.67893 7 10.75 7C12.8211 7 14.5 8.67893 14.5 10.75C14.5 12.8211 12.8211 14.5 10.75 14.5C8.67893 14.5 7 12.8211 7 10.75ZM10.75 8.5C9.50736 8.5 8.5 9.50736 8.5 10.75C8.5 11.9926 9.50736 13 10.75 13C11.9926 13 13 11.9926 13 10.75C13 9.50736 11.9926 8.5 10.75 8.5Z" fill="#97ADB6"/>
<path fill-rule="evenodd" clip-rule="evenodd" d="M3.07343 9.39635C2.65431 10.0003 2.5 10.4727 2.5 10.75C2.5 11.0273 2.65431 11.4997 3.07343 12.1036C3.47857 12.6874 4.08078 13.3203 4.84267 13.905C6.36978 15.0771 8.46345 16 10.75 16C13.0365 16 15.1302 15.0771 16.6573 13.905C17.4192 13.3203 18.0214 12.6874 18.4266 12.1036C18.8457 11.4997 19 11.0273 19 10.75C19 10.4727 18.8457 10.0003 18.4266 9.39635C18.0214 8.81256 17.4192 8.17972 16.6573 7.59497C15.1302 6.42292 13.0365 5.5 10.75 5.5C8.46345 5.5 6.36978 6.42292 4.84267 7.59497C4.08078 8.17972 3.47857 8.81256 3.07343 9.39635ZM3.92941 6.40503C5.65965 5.07708 8.06598 4 10.75 4C13.434 4 15.8403 5.07708 17.5706 6.40503C18.4374 7.07028 19.1532 7.81244 19.6589 8.54115C20.1506 9.24971 20.5 10.0273 20.5 10.75C20.5 11.4727 20.1506 12.2503 19.6589 12.9589C19.1532 13.6876 18.4374 14.4297 17.5706 15.095C15.8403 16.4229 13.434 17.5 10.75 17.5C8.06598 17.5 5.65965 16.4229 3.92941 15.095C3.06262 14.4297 2.34681 13.6876 1.8411 12.9589C1.34937 12.2503 1 11.4727 1 10.75C1 10.0273 1.34937 9.24971 1.8411 8.54115C2.34681 7.81244 3.06262 7.07028 3.92941 6.40503Z" fill="#97ADB6"/>
</svg>
