<svg width="22" height="22" viewBox="0 0 22 22" fill="none" xmlns="http://www.w3.org/2000/svg">
<path fill-rule="evenodd" clip-rule="evenodd" d="M19.7491 2.39007C20.0495 2.07207 20.0495 1.5565 19.7491 1.2385C19.4487 0.9205 18.9616 0.9205 18.6612 1.2385L2.25094 18.6099C1.95054 18.9279 1.95054 19.4435 2.25094 19.7615C2.55135 20.0795 3.0384 20.0795 3.3388 19.7615L6.25869 16.6706C7.66003 17.3689 9.27404 17.8286 11 17.8286C13.7528 17.8286 16.2209 16.6592 17.9955 15.2174C18.8845 14.4951 19.6187 13.6893 20.1373 12.8982C20.6417 12.1289 21 11.2846 21 10.5C21 9.71535 20.6417 8.87112 20.1373 8.10182C19.6187 7.31065 18.8845 6.50488 17.9955 5.78261C17.7266 5.56418 17.4419 5.352 17.1426 5.1492L19.7491 2.39007ZM16.0252 6.33208L14.2089 8.2547C14.6116 8.89834 14.8462 9.67018 14.8462 10.5C14.8462 12.7486 13.1242 14.5714 11 14.5714C10.2161 14.5714 9.48696 14.3232 8.87893 13.8969L7.42589 15.435C8.51874 15.9063 9.73038 16.2 11 16.2C13.3452 16.2 15.4925 15.198 17.0588 13.9255C17.8402 13.2906 18.4579 12.6035 18.8734 11.9697C19.3033 11.314 19.4615 10.8011 19.4615 10.5C19.4615 10.1989 19.3033 9.68603 18.8734 9.03033C18.4579 8.39649 17.8402 7.70941 17.0588 7.07454C16.7376 6.81357 16.3919 6.56398 16.0252 6.33208ZM10.0051 12.7048C10.3063 12.8574 10.6437 12.9429 11 12.9429C12.2745 12.9429 13.3077 11.8492 13.3077 10.5C13.3077 10.1229 13.227 9.76569 13.0828 9.44679L10.0051 12.7048Z" fill="#97ADB6"/>
<path d="M11 3.17143C12.0588 3.17143 13.0755 3.34443 14.0268 3.63939C14.2098 3.69613 14.2643 3.93862 14.1295 4.08136L13.2838 4.9766C13.2204 5.04375 13.1284 5.07065 13.041 5.04936C12.3852 4.88964 11.7015 4.8 11 4.8C8.65482 4.8 6.50747 5.80203 4.9412 7.07454C4.15977 7.70941 3.54212 8.39649 3.12659 9.03033C2.69673 9.68603 2.53846 10.1989 2.53846 10.5C2.53846 10.8011 2.69673 11.314 3.12659 11.9697C3.48949 12.5232 4.00654 13.1174 4.65222 13.6819C4.77104 13.7858 4.78237 13.976 4.67339 14.0913L3.9463 14.861C3.85368 14.959 3.70588 14.9676 3.60551 14.8785C2.89476 14.2476 2.30156 13.5677 1.86267 12.8982C1.35833 12.1289 1 11.2846 1 10.5C1 9.71535 1.35833 8.87112 1.86267 8.10182C2.38134 7.31065 3.11551 6.50488 4.00452 5.78261C5.77913 4.34083 8.24716 3.17143 11 3.17143Z" fill="#97ADB6"/>
<path d="M11 6.42857C11.1215 6.42857 11.2417 6.43454 11.3603 6.4462C11.5622 6.46606 11.6353 6.72161 11.4919 6.87339L10.2486 8.18956C9.57854 8.43371 9.04803 8.99528 8.8174 9.70459L7.57406 11.0208C7.43067 11.1725 7.18926 11.0952 7.1705 10.8814C7.15948 10.7559 7.15385 10.6286 7.15385 10.5C7.15385 8.25141 8.87583 6.42857 11 6.42857Z" fill="#97ADB6"/>
</svg>
