<svg id="Слой_1" data-name="Слой 1" xmlns="http://www.w3.org/2000/svg" viewBox="0 0 41 40.99"><title>Screenshot_2</title><path d="M20.42,41A20.5,20.5,0,1,1,41,20.55,20.53,20.53,0,0,1,20.42,41ZM1.05,20.51A19.47,19.47,0,1,0,20.54,1,19.46,19.46,0,0,0,1.05,20.51Z"/><path d="M28.44,29.45,26.9,28.7c-.52-.26-1-.54-1.55-.77a1.46,1.46,0,0,0-.72,0,7.31,7.31,0,0,1-6.5-1.66,5.61,5.61,0,0,1-1-1.2c-.21-.34-.38-.35-.7-.18-1,.53-2.07,1-3.1,1.54-.13.07-.27.11-.46.19,0-.27,0-.48,0-.69,0-1.16,0-2.31,0-3.47a1,1,0,0,0-.17-.57A5.8,5.8,0,0,1,14,13.47,9.35,9.35,0,0,1,26.32,14.6a5.32,5.32,0,0,1,1.39,3.82,1.08,1.08,0,0,0,.34.86,4.58,4.58,0,0,1,.58,6.2,1,1,0,0,0-.17.49c0,1,0,1.92,0,2.88ZM13.85,25l.57-.25c.73-.35,1.45-.72,2.19-1.06a.94.94,0,0,1,.59-.07,8.85,8.85,0,0,0,3.51.25,7.31,7.31,0,0,0,5.18-2.93,4.62,4.62,0,0,0-.48-5.83,8.44,8.44,0,0,0-10.6-.95,4.83,4.83,0,0,0-1.28,7.15,1.64,1.64,0,0,1,.31.88C13.87,23.07,13.85,24,13.85,25Zm4.5-.08c0,.09,0,.14.07.17a2.2,2.2,0,0,0,.2.23A5.81,5.81,0,0,0,23.75,27a3.87,3.87,0,0,1,3,.51,4.93,4.93,0,0,0,.74.32c0-.72,0-1.33,0-2a1.35,1.35,0,0,1,.33-.93,3.41,3.41,0,0,0,.62-3.18,3.5,3.5,0,0,0-.91-1.53C25.55,24,22.3,25.09,18.35,24.9Z"/></svg>