<svg id="Слой_1" data-name="Слой 1" xmlns="http://www.w3.org/2000/svg" viewBox="0 0 41 41"><defs><style>.cls-1{fill:#ffc032;}</style></defs><title>Screenshot_4</title><path d="M20.42,41A20.5,20.5,0,1,1,41,20.54,20.5,20.5,0,0,1,20.42,41ZM1.05,20.5a19.47,19.47,0,1,0,0-.08Z" transform="translate(0 0)"/><path class="cls-1" d="M19.52,21.57H10v2.66h9.49Z" transform="translate(0 0)"/><path class="cls-1" d="M7.74,18.59a4.16,4.16,0,0,1,.8-1.3,4.08,4.08,0,0,1,1.07-.82A5.43,5.43,0,0,1,10.72,16a4.76,4.76,0,0,1,.92-.18l.53,0h7.44V14.49a1.3,1.3,0,0,0-.1-.52,1.42,1.42,0,0,0-.29-.43,1.6,1.6,0,0,0-.44-.29,1.35,1.35,0,0,0-.53-.1H12.17a7.93,7.93,0,0,0-3,.54,7,7,0,0,0-2.36,1.52,7.07,7.07,0,0,0-1.56,2.32,7.73,7.73,0,0,0-.56,3v7.35h2.7V20.49A5.14,5.14,0,0,1,7.74,18.59Z" transform="translate(0 0)"/><path class="cls-1" d="M16.91,15.81v12h2.7v-12Z" transform="translate(0 0)"/><path d="M35.8,16.83a5.81,5.81,0,0,0-1.3-1.94,5.89,5.89,0,0,0-2-1.28,6.51,6.51,0,0,0-2.48-.46H22.76a1.4,1.4,0,0,0-.54.1,1.42,1.42,0,0,0-.43.29,1.23,1.23,0,0,0-.28.43,1.31,1.31,0,0,0-.11.52v1.32h8.65a4.09,4.09,0,0,1,1.43.25,3.3,3.3,0,0,1,1.12.71,3.18,3.18,0,0,1,.72,1.1,3.87,3.87,0,0,1,.26,1.43v2.39a3.8,3.8,0,0,1-.26,1.43,3.09,3.09,0,0,1-.72,1.1,3.3,3.3,0,0,1-1.12.71,4.09,4.09,0,0,1-1.43.25H21.4V26.5a1.32,1.32,0,0,0,.11.53,1.28,1.28,0,0,0,.28.43,1.36,1.36,0,0,0,1,.38h7.29a6.51,6.51,0,0,0,2.48-.46,5.89,5.89,0,0,0,2-1.28,5.81,5.81,0,0,0,1.3-1.94,6.2,6.2,0,0,0,.48-2.46V19.3A6.29,6.29,0,0,0,35.8,16.83Z" transform="translate(0 0)"/><path d="M25.6,18H14.15V20.7H25.6Z" transform="translate(0 0)"/></svg>