<svg id="Слой_1" data-name="Слой 1" xmlns="http://www.w3.org/2000/svg" viewBox="0 0 41 41"><title>Screenshot_3</title><path d="M20.39,41A20.5,20.5,0,1,1,41,20.44,20.48,20.48,0,0,1,20.39,41ZM1,20.5A19.48,19.48,0,1,0,20.55,1,19.48,19.48,0,0,0,1,20.5Z" transform="translate(0)"/><path d="M22.36,6.87H26c.37,0,.54.07.54.52,0,1.8,0,3.61,0,5.41a3.15,3.15,0,0,1,0,.44c-.22,1.24-.44,2.47-.67,3.71a6.16,6.16,0,0,1-1.58,3.17A1.72,1.72,0,0,0,24.33,22c.23.24.43.53.67.76a1.74,1.74,0,0,0,.52.38c.91.39,1.85.72,2.74,1.14a2.27,2.27,0,0,1,1.3,2.25c0,1.51,0,3,0,4.53,0,.61-.1.76-.68.92-2.59.69-5.18,1.39-7.77,2a3,3,0,0,1-1.39,0c-2.47-.62-4.93-1.28-7.39-1.93-.81-.21-.89-.32-.89-1.17,0-1.43,0-2.87,0-4.3A2.46,2.46,0,0,1,13.24,24c.77-.29,1.55-.56,2.32-.88.17-.07.3-.28.43-.43a3.79,3.79,0,0,1,.38-.42,1.64,1.64,0,0,0,.31-2.38,7.07,7.07,0,0,1-1.53-4,10.15,10.15,0,0,0-.43-2,5.64,5.64,0,0,1,.91-5.45,3.84,3.84,0,0,1,3-1.5c1.23,0,2.46,0,3.69,0ZM20.5,30.58a1.12,1.12,0,0,1-.54-.95c0-1.25,0-2.49,0-3.74,0-.14,0-.28,0-.42l-.12-.08c-.18.2-.35.42-.54.61a.84.84,0,0,1-1.42-.13c-.35-.5-.69-1-1-1.51-.19-.3-.37-.4-.72-.26-.87.34-1.75.64-2.63,1a1.31,1.31,0,0,0-1,1.43c0,1.37,0,2.73,0,4.09a.44.44,0,0,0,.36.51L20.2,33a1.26,1.26,0,0,0,.61,0l7.3-1.9a.46.46,0,0,0,.41-.52c0-1.36,0-2.72,0-4.08a1.41,1.41,0,0,0-1-1.44c-.9-.34-1.81-.67-2.7-1a.43.43,0,0,0-.62.2c-.33.52-.68,1-1,1.55-.46.67-1,.72-1.53.14L21,25.34v.58c0,1.21,0,2.43,0,3.64A1.16,1.16,0,0,1,20.5,30.58ZM22.69,7.93h0c-1.37,0-2.75,0-4.12,0a2.69,2.69,0,0,0-2.09,1,4.59,4.59,0,0,0-.73,4.61A8.84,8.84,0,0,1,16.23,16a6.42,6.42,0,0,0,.1.75,4.64,4.64,0,0,0,1.56,2.91,4.32,4.32,0,0,0,6.8-2.38c.38-1.45.57-2.95.85-4.43a.06.06,0,0,0,0,0c0-1.48,0-3,0-4.44,0-.33-.14-.43-.46-.42C24.29,7.94,23.49,7.93,22.69,7.93Zm.14,13.15a6.87,6.87,0,0,1-4.67,0,.69.69,0,0,0,.29.93c.59.36,1.16.77,1.77,1.11a.69.69,0,0,0,.58,0c.62-.36,1.2-.77,1.8-1.14C22.93,21.73,23,21.48,22.83,21.08Zm-4.18,4.07,1-1.14c-.69-.45-1.3-.85-1.93-1.23a.43.43,0,0,0-.37.07.37.37,0,0,0,0,.34C17.75,23.82,18.17,24.44,18.65,25.15Zm3.7,0c.45-.67.87-1.27,1.26-1.88a.42.42,0,0,0,0-.41.44.44,0,0,0-.43,0c-.54.32-1.08.66-1.6,1a.4.4,0,0,0-.07.38A11,11,0,0,0,22.35,25.14Z" transform="translate(0)"/><path d="M16.51,12.71c0-.18,0-.36,0-.54a.79.79,0,0,1,.7-.8,10.21,10.21,0,0,1,6.38.64,3.92,3.92,0,0,1,.75.47.55.55,0,0,1,.16.79c-.2.29-.49.2-.74,0-1.81-1.23-3.82-1.23-5.87-1-.26,0-.34.17-.34.42a3.77,3.77,0,0,1-.07.83c-.05.16-.23.37-.36.38a.77.77,0,0,1-.49-.29c-.1-.1-.1-.3-.12-.46a3.85,3.85,0,0,1,0-.48Z" transform="translate(0)"/></svg>