<svg width="40" height="40" viewBox="0 0 40 40" fill="none" xmlns="http://www.w3.org/2000/svg">
<path d="M0 0H40V40H0V0Z" fill="white" fill-opacity="0.01"/>
<path fill-rule="evenodd" clip-rule="evenodd" d="M26.1718 5.37277C25.9331 5.13409 25.6094 5 25.2718 5C24.9343 5 24.6105 5.13409 24.3718 5.37277L8.77264 20.972C8.61275 21.1319 8.49834 21.3315 8.44119 21.5503L6.74422 28.047C6.63003 28.4842 6.75618 28.9491 7.07568 29.2686C7.39517 29.5881 7.86011 29.7143 8.29728 29.6001L14.794 27.9031C15.0128 27.8459 15.2124 27.7315 15.3723 27.5716L30.9715 11.9724C31.4685 11.4754 31.4685 10.6696 30.9715 10.1725L26.1718 5.37277ZM10.8167 22.5277L25.2718 8.07264L28.2717 11.0725L13.8166 25.5275L9.75613 26.5882L10.8167 22.5277Z" fill="#3E4958"/>
<path d="M7.27273 32.1515C6.56982 32.1515 6 32.7213 6 33.4242C6 34.1272 6.56982 34.697 7.27273 34.697H32.7273C33.4302 34.697 34 34.1272 34 33.4242C34 32.7213 33.4302 32.1515 32.7273 32.1515H7.27273Z" fill="#3E4958"/>
</svg>
