<svg width="60" height="60" viewBox="0 0 60 60" fill="none" xmlns="http://www.w3.org/2000/svg">
<path d="M54.5748 39.9302V39.3081H54.4179L54.2363 39.7354L54.0557 39.3081H53.8978V39.9302H54.0093V39.461L54.179 39.8659H54.2945L54.4643 39.46V39.9302H54.5748ZM53.579 39.9302V39.4141H53.7803V39.3091H53.2671V39.4141H53.4684V39.9302H53.579Z" fill="#F79410"/>
<path d="M36.7712 42.6016H23.2177V17.4316H36.7712V42.6016Z" fill="#FF5F00"/>
<path d="M24.0845 30.012C24.0845 24.9061 26.3979 20.358 30.0006 17.427C27.3661 15.2837 24.0411 14.0044 20.4276 14.0044C11.873 14.0044 4.93848 21.1711 4.93848 30.012C4.93848 38.8528 11.873 46.0195 20.4276 46.0195C24.0411 46.0195 27.3661 44.7403 30.0006 42.597C26.3979 39.666 24.0845 35.1178 24.0845 30.012Z" fill="#EB001B"/>
<path d="M55.0568 30.0076C55.0568 38.8484 48.1223 46.0151 39.5676 46.0151C35.9541 46.0151 32.6292 44.7359 29.9937 42.5926C33.5973 39.6616 35.9108 35.1134 35.9108 30.0076C35.9108 24.9017 33.5973 20.3536 29.9937 17.4226C32.6292 15.2793 35.9541 14 39.5676 14C48.1223 14 55.0568 21.1667 55.0568 30.0076Z" fill="#F79E1B"/>
</svg>
