<svg width="40" height="40" viewBox="0 0 40 40" fill="none" xmlns="http://www.w3.org/2000/svg">
<path d="M0 0H40V40H0V0Z" fill="white" fill-opacity="0.01"/>
<path fill-rule="evenodd" clip-rule="evenodd" d="M14.6154 20C14.6154 16.9318 17.0262 14.4444 20 14.4444C22.9738 14.4444 25.3846 16.9318 25.3846 20C25.3846 23.0682 22.9738 25.5556 20 25.5556C17.0262 25.5556 14.6154 23.0682 14.6154 20ZM20 16.6667C18.2157 16.6667 16.7692 18.1591 16.7692 20C16.7692 21.8409 18.2157 23.3333 20 23.3333C21.7843 23.3333 23.2308 21.8409 23.2308 20C23.2308 18.1591 21.7843 16.6667 20 16.6667Z" fill="#3E4958"/>
<path fill-rule="evenodd" clip-rule="evenodd" d="M8.97723 17.9946C8.37542 18.8893 8.15385 19.5892 8.15385 20C8.15385 20.4108 8.37542 21.1107 8.97723 22.0054C9.55897 22.8703 10.4237 23.8078 11.5177 24.6741C13.7105 26.4105 16.7168 27.7778 20 27.7778C23.2832 27.7778 26.2895 26.4105 28.4823 24.6741C29.5763 23.8078 30.441 22.8703 31.0228 22.0054C31.6246 21.1107 31.8462 20.4108 31.8462 20C31.8462 19.5892 31.6246 18.8893 31.0228 17.9946C30.441 17.1297 29.5763 16.1922 28.4823 15.3259C26.2895 13.5895 23.2832 12.2222 20 12.2222C16.7168 12.2222 13.7105 13.5895 11.5177 15.3259C10.4237 16.1922 9.55897 17.1297 8.97723 17.9946ZM10.2063 13.563C12.6908 11.5957 16.146 10 20 10C23.854 10 27.3092 11.5957 29.7937 13.563C31.0383 14.5486 32.0661 15.6481 32.7923 16.7276C33.4983 17.7774 34 18.9293 34 20C34 21.0707 33.4983 22.2226 32.7923 23.2724C32.0661 24.3519 31.0383 25.4514 29.7937 26.437C27.3092 28.4043 23.854 30 20 30C16.146 30 12.6908 28.4043 10.2063 26.437C8.96172 25.4514 7.93388 24.3519 7.20774 23.2724C6.50166 22.2226 6 21.0707 6 20C6 18.9293 6.50166 17.7774 7.20774 16.7276C7.93388 15.6481 8.96172 14.5486 10.2063 13.563Z" fill="#3E4958"/>
</svg>
